<svg id="Слой_1" xmlns="http://www.w3.org/2000/svg" width="1574" height="262" viewBox="0 0 1574 262"><style>.st0{fill:#fff}.st1{fill:#6ea520}.st2{fill:#3f51b5}.st3{fill:#f44336}.st4{fill:#9c27b0}.st5{fill:#00bcd4}.st6{fill:#4caf50}.st7{fill:#03a9f4}.st8{fill:#ff5722}.st9{fill:#ff9800}</style><path class="st0" d="M1000.8 131.3c-.7 0-1.3.6-1.3 1.3v7.1c0 .7.6 1.3 1.3 1.3.7 0 1.3-.6 1.3-1.3v-7.1c0-.8-.6-1.3-1.3-1.3zm4.1 0c-.7 0-1.3.6-1.3 1.3v7.1c0 .7.6 1.3 1.3 1.3.7 0 1.3-.6 1.3-1.3v-7.1c-.1-.8-.6-1.3-1.3-1.3zm4 0c-.7 0-1.3.6-1.3 1.3v7.1c0 .7.6 1.3 1.3 1.3.7 0 1.3-.6 1.3-1.3v-7.1c0-.8-.6-1.3-1.3-1.3zm31.5 0c-.7 0-1.3.6-1.3 1.3v7.1c0 .7.6 1.3 1.3 1.3s1.3-.6 1.3-1.3v-7.1c-.1-.8-.6-1.3-1.3-1.3zm4.1 0c-.7 0-1.3.6-1.3 1.3v7.1c0 .7.6 1.3 1.3 1.3.7 0 1.3-.6 1.3-1.3v-7.1c-.1-.8-.7-1.3-1.3-1.3zm4 0c-.7 0-1.3.6-1.3 1.3v7.1c0 .7.6 1.3 1.3 1.3.7 0 1.3-.6 1.3-1.3v-7.1c0-.8-.6-1.3-1.3-1.3zm-33.4 47.2v-2.6h4.2v-.5h-17.5v-3.3h1.7v-1.8h-1.7v-7.7h-2.9l-5.2 8v1.6h5.8v3.3h-7.6v.5h14l-1.1 8.7c.7-.1 1.4-.2 2.4-.2 3.5 0 5 1.3 5 3.3 0 2.1-1.9 3.2-3.8 3.2-1.6 0-3.1-.5-3.9-.9l-.7 2.5c.9.5 2.6 1 4.7 1 4.3 0 7.1-2.7 7.1-6.1 0-2.1-1-3.6-2.3-4.5-1.2-.8-2.7-1.1-4.3-1.1-.4 0-.9 0-1.3.1l.5-3.5h6.9zm-15.6-11.7v3.5H996l2.3-3.5c.4-.7.7-1.4 1.1-2.2h.1v2.2zm32.5-21.1h-14.7c-.6 0-1.1-.5-1.1-1.1s.5-1.1 1.1-1.1h14.7c.6 0 1.1.5 1.1 1.1s-.5 1.1-1.1 1.1zm-19.8-9v2.3h25v-2.2h-25z"/><path class="st0" d="M1001.8 189.3h-1.8c-1.6 0-2.9-1.3-2.9-2.9v-7.8h-2.3v7.8c0 2.8 2.3 5.1 5.1 5.1h1.5l.4-2.2zm5.9-23.9c-.3 0-.5-.1-.7-.3l-1.8-1.8c-.3-.4-.5-.9-.1-1.2.4-.3.7-.2 1.2 0s1.4 1 1.4 1l2.1-2.5c.6-.5 1-.7 1.5-.5.5.2.6.9.2 1.3l-3.2 3.7c-.1.2-.3.3-.6.3zm16.5 0c-.3 0-.5-.1-.7-.3l-1.8-1.8c-.3-.4-.5-.9-.1-1.2.4-.3.7-.2 1.2 0s1.4 1 1.4 1l2.1-2.5c.6-.5 1-.7 1.5-.5.5.2.6.9.2 1.3l-3.2 3.7c-.1.2-.3.3-.6.3z"/><path class="st0" d="M1012 155.9h-7.2c-1.7 0-3.1 1.4-3.1 3.1v1.2h2.3V159c0-.5.4-.9.9-.9h7.2c.5 0 .9.4.9.9v7.2c0 .5-.4.9-.9.9h-6.7v2.3h6.7c1.7 0 3.1-1.4 3.1-3.1V159c-.1-1.7-1.5-3.1-3.2-3.1zm28.4 41.1c-9.7 0-17.7-7.9-17.7-17.7 0-9.7 7.9-17.7 17.7-17.7s17.7 7.9 17.7 17.7c0 9.8-8 17.7-17.7 17.7zm0-33c-8.5 0-15.4 6.9-15.4 15.4s6.9 15.4 15.4 15.4 15.4-6.9 15.4-15.4-6.9-15.4-15.4-15.4z"/><path class="st0" d="M1040.4 191.2c-6.5 0-11.9-5.3-11.9-11.9s5.3-11.9 11.9-11.9c6.5 0 11.9 5.3 11.9 11.9s-5.4 11.9-11.9 11.9zm0-21.9c-5.6 0-10.1 4.5-10.1 10.1s4.5 10.1 10.1 10.1 10.1-4.5 10.1-10.1-4.6-10.1-10.1-10.1z"/><circle class="st0" cx="1040.4" cy="179.4" r="1.9"/><path class="st0" d="M1040.4 180.4c-.6 0-1-.5-1-1v-7.6c0-.6.5-1 1-1 .6 0 1 .5 1 1v7.6c0 .5-.4 1-1 1z"/><path class="st0" d="M1036.6 184.1c-.3 0-.5-.1-.7-.3-.4-.4-.4-1 0-1.4l3.7-3.7c.4-.4 1-.4 1.4 0 .4.4.4 1 0 1.4l-3.7 3.7c-.1.2-.4.3-.7.3zm-13.7-14.8c.5-.8 1-1.5 1.5-2.3h-3.2c-.5 0-.9-.4-.9-.9V159c0-.5.4-.9.9-.9h7.2c.5 0 .9.4.9.9v3.5c.7-.5 1.5-.9 2.3-1.3V159c0-1.7-1.4-3.1-3.1-3.1h-7.2c-1.7 0-3.1 1.4-3.1 3.1v7.2c0 1.7 1.4 3.1 3.1 3.1h1.6zm13.8-9.8v-.5c0-.5.4-.9.9-.9h7.2c.5 0 .9.4.9.9v.9c.8.2 1.5.5 2.3.8V159c0-1.7-1.4-3.1-3.1-3.1h-7.2c-1.7 0-3.1 1.4-3.1 3.1v1c.6-.2 1.4-.4 2.1-.5zm-16.1 23.3c-.2-.1-.3-.3-.3-.6v-1.7c0-.3-.1-.7-.1-1s0-.7.1-1v-2.8c0-.3.3-.6.6-.7.2-.7.4-1.4.7-2.1h-.5c-1.7 0-3.1 1.3-3.1 2.8v6.5c0 1.6 1.4 2.8 3.1 2.8-.1-.7-.3-1.4-.5-2.2z"/><path class="st0" d="M1052.3 163.2c.8.6 1.6 1.3 2.3 2v-12.5c1.8-.5 3.1-2.1 3.1-4v-7.9c0-2.3-1.9-4.1-4.1-4.1h-1.7v2.2h1.7c1 0 1.9.8 1.9 1.9v7.9c0 1-.8 1.9-1.9 1.9h-57.7c-1 0-1.9-.8-1.9-1.9v-7.9c0-1 .8-1.9 1.9-1.9h1.7v-2.3h-1.7c-2.3 0-4.1 1.9-4.1 4.1v7.9c0 1.9 1.4 3.6 3.2 4v9.7l2.3-2.5v-7.1h55.2v10.5zm-29.2 26.1h-5.4l-.8 2.3h7.8c-.7-.7-1.2-1.5-1.6-2.3z"/><path class="st1" d="M536.9 73.6h-5.3v2h13v-2h-5.3v-14h18.2v-2.3h-2.3v-25h2.3V30h-38.7v2.3h2.3v25h-2.3v2.3H537v14zm-13.6-16.3v-25h29.6v25h-29.6zm6.3 26.8c0 3 2.4 5.4 5.4 5.4 3 0 5.4-2.4 5.4-5.4 0-3-2.4-5.4-5.4-5.4-3 0-5.4 2.5-5.4 5.4zm9 0c0 2-1.6 3.6-3.6 3.6s-3.6-1.6-3.6-3.6 1.6-3.6 3.6-3.6 3.6 1.7 3.6 3.6zm10.8 0c0 3 2.4 5.4 5.4 5.4 3 0 5.4-2.4 5.4-5.4 0-3-2.4-5.4-5.4-5.4-3 0-5.4 2.5-5.4 5.4zm9 0c0 2-1.6 3.6-3.6 3.6s-3.6-1.6-3.6-3.6 1.6-3.6 3.6-3.6 3.6 1.7 3.6 3.6zm3.3 7.5c-.2-.2-.4-.3-.6-.3h-12.6c-.2 0-.5.1-.6.3l-3 3-3-3c-.2-.2-1.3-.3-1.5-.3h-11c-.2 0-1.2.1-1.3.3l-3.6 3.6c-.2.2-.3.4-.3.6v.9h1.8v-.5l3.1-3.1H541l3.1 3.1h1.8l3.1-3.1h11.9l3.1 3.1v.5h1.8v-.9c0-.2-.1-.5-.3-.6l-3.8-3.6zm24.2-41h-2.3v-1.2c1.4-1.1 2.3-2.7 2.3-4.5v-1.1h1.1s-.1-2-.9-2.3c-.4-.2-1.4 0-1.4 0-.6 0-1.1.5-1.1 1.1v2.3c0 1.2-.6 2.3-1.7 2.9-.4.2-.6.6-.6 1v2.4l-1.1 1.1-1.1-1.1v-2.4c0-.4-.2-.8-.6-1-1.1-.6-1.7-1.7-1.7-2.9v-4.3c1 .6 2.2.9 3.4.9h3.4c.6 0 1.1-.5 1.1-1.1 0-3.8-3.1-6.8-6.8-6.8h-3.4c-.6 0-1.1.5-1.1 1.1 0 1.4.4 2.7 1.1 3.8V45c0 1.8.9 3.5 2.3 4.5v1.2h-11.4V40.3h-2.3v3.5h-3.4c-.6 0-1.1.5-1.1 1.1v6.8c0 3.1 2.5 5.7 5.7 5.7h5.7v14.8c0 .6.5 1.1 1.1 1.1h2.3v21.5c0 .6.5 1.1 1.1 1.1h8c3.1 0 4.4-2.6 4.4-5.7V73.4h3.5c.6 0 1.1-.5 1.1-1.1v-16c.1-3.1-2.5-5.7-5.6-5.7zm-10.1-14.8h2.1c2.1 0 3.9 1.4 4.4 3.4h-2.1c-2.1 0-3.9-1.4-4.4-3.4zm8.9 54.5c0 1.9-.3 3.4-2.2 3.4h-1.1V79.1h-2.3v14.7h-3.4V73.4h9v16.9zm4.6-19.2h-2.4v-6.9h-2.1v6.9h-12.6V56.3c0-.6-.5-1.1-1.1-1.1h-6.8c-1.9 0-3.4-1.5-3.4-3.4v-5.7h2.3v4.6c0 1.3 1 2.3 2.3 2.3h12.1l1.6 1.6v7.9h2.3v-7.9l1.6-1.6h2.9c1.9 0 3.4 1.5 3.4 3.4l-.1 14.7z"/><path class="st1" d="M537.7 33.5c-3.5 0-9 2.5-9 9 0 4.9 4 9 9 9 4.4 0 8.1-3.2 8.8-7.5v-3c-.6-4.2-4.3-7.5-8.8-7.5zm-6 12.5c-.6-1.1-.8-2.3-.8-3.5 0-3.1 2.1-6 5.2-6.8l1.1-.1v6.7l-4.7 4.7-.8-1zm6 3.6c-1.2 0-2.4-.3-3.5-1l-1-.7 4.9-5c.1-.1.2-.3.2-.4v-6.9l1.1.1c3 .8 5.2 3.7 5.2 6.8 0 3.8-3.1 7.1-6.9 7.1zm1.5 3.2h2.3V55h-2.3v-2.2zm4.6 0h2.3V55h-2.3v-2.2zm4.5 0h2.3V55h-2.3v-2.2z"/><path class="st2" d="M224 75.5v21.3h31.7v-1.5c0-7.7 6.1-14.3 13.5-14.3s13.5 6.6 13.5 14.3v1.5h13.6V66h-8V48.2h-1.6L277.8 30l-7.5 18.2h-.6c.1-.4.1-.8.1-1.2 0-3.9-3.1-7.1-6.9-7.1-3.8 0-6.9 3.2-6.9 7.1 0 2.5 1.3 4.7 3.2 6H255v13h-11.1l8-8.3-9.7-10-17.8 18.4 9.1 9.4H224zm39-33.3c2.6 0 4.6 2.1 4.6 4.8 0 2.6-2.1 4.8-4.6 4.8s-4.6-2.1-4.6-4.8c-.1-2.7 2-4.8 4.6-4.8zm5.8 10.7h-2.1c.9-.6 1.6-1.3 2.1-2.2v2.2zm0 13.1h-11.6V55.2h11.6V66zm15.4-17.8h-11.5l5.3-12.7 6.2 12.7zM286 66h-15V50.5h15V66zm-42.6 2.3H294v26.2h-8.9c-.7-8.6-7.4-16.2-16-16.2s-15.3 7.5-16 16.2h-9.8l.1-26.2zm-9.3 4.6l-6.6-6.8 14.7-15.2 6.6 6.8-14.7 15.2zm7.1-4.1v6.7h-6.5l6.5-6.7zm0 25.6h-15V77.8h15v16.6z"/><path class="st3" d="M47.4 51c-9.5 0-17.3 7.8-17.3 17.3 0 9.1 7.1 16.6 16.1 17.3v9.9c0 .7.5 1.2 1.2 1.2s1.2-.5 1.2-1.2v-9.9c8.9-.6 16.1-8.2 16.1-17.3 0-9.5-7.8-17.3-17.3-17.3zm1.2 32.1v-4.4l3.3-3.3c.5-.5.5-1.2 0-1.7s-1.2-.5-1.7 0l-2.8 2.8-2.8-2.8c-.5-.5-1.2-.5-1.7 0s-.5 1.2 0 1.7l3.3 3.3v4.4c-7.6-.6-13.6-7-13.6-14.8 0-8.2 6.7-14.8 14.8-14.8 8.2 0 14.8 6.7 14.8 14.8 0 7.8-6 14.2-13.6 14.8zm23.2-26.8h14.3c2.5 0 4.4-2.1 4.4-4.8 0-2.3-1.6-4.3-3.7-4.7-.5-5.3-4.2-7.2-7.7-7.2-4.7 0-7.3 2.8-8.2 4.1-3 .4-5.2 3.1-5.2 6.3.2 3.5 2.9 6.3 6.1 6.3zm0-10.1c.5 0 .9-.2 1.1-.6 0-.2 1.9-3.5 6.3-3.5 1.9 0 5.2.7 5.2 5.8 0 .7.5 1.2 1.2 1.2h.5c1.1 0 2 1 2 2.3s-.9 2.3-2 2.3H71.8c-2 0-3.5-1.7-3.5-3.8s1.7-3.7 3.5-3.7zM42.4 93c-.7 0-1.2.5-1.2 1.2v1.2c0 .7.5 1.2 1.2 1.2s1.2-.5 1.2-1.2v-1.2c.1-.7-.4-1.2-1.2-1.2zm-4.9 0c-.7 0-1.2.5-1.2 1.2v1.2c0 .7.5 1.2 1.2 1.2s1.2-.5 1.2-1.2v-1.2c0-.7-.5-1.2-1.2-1.2zm-5 0c-.7 0-1.2.5-1.2 1.2v1.2c0 .7.5 1.2 1.2 1.2s1.2-.5 1.2-1.2v-1.2c.1-.7-.4-1.2-1.2-1.2zm29.7 0c-.7 0-1.2.5-1.2 1.2v1.2c0 .7.5 1.2 1.2 1.2s1.2-.5 1.2-1.2v-1.2c0-.7-.5-1.2-1.2-1.2zm-4.9 0c-.7 0-1.2.5-1.2 1.2v1.2c0 .7.5 1.2 1.2 1.2s1.2-.5 1.2-1.2v-1.2c0-.7-.5-1.2-1.2-1.2zm-5 0c-.7 0-1.2.5-1.2 1.2v1.2c0 .7.5 1.2 1.2 1.2s1.2-.5 1.2-1.2v-1.2c.1-.7-.4-1.2-1.2-1.2zm49.5 0c-.7 0-1.2.5-1.2 1.2v1.2c0 .7.5 1.2 1.2 1.2s1.2-.5 1.2-1.2v-1.2c0-.7-.5-1.2-1.2-1.2zm-5 0c-.7 0-1.2.5-1.2 1.2v1.2c0 .7.5 1.2 1.2 1.2s1.2-.5 1.2-1.2v-1.2c0-.7-.4-1.2-1.2-1.2zm-29.7 0c-.7 0-1.2.5-1.2 1.2v1.2c0 .7.5 1.2 1.2 1.2s1.2-.5 1.2-1.2v-1.2c.1-.7-.4-1.2-1.2-1.2zm12.4 0c-.7 0-1.2.5-1.2 1.2v1.2c0 .7.5 1.2 1.2 1.2s1.2-.5 1.2-1.2v-1.2c0-.7-.5-1.2-1.2-1.2zm5 0c-.7 0-1.2.5-1.2 1.2v1.2c0 .7.5 1.2 1.2 1.2s1.2-.5 1.2-1.2v-1.2c0-.7-.5-1.2-1.2-1.2z"/><path class="st3" d="M96.9 89.3v-2.2c0-2.8-2.3-5.1-5.1-5.2v-2.5h2.5c.7 0 1.2-.5 1.2-1.2s-.4-1.2-1.2-1.2h-2.5v-2.5h2.5c.7 0 1.2-.5 1.2-1.2s-.5-1.2-1.2-1.2h-2.5v-1.2c0-.7-.5-1.2-1.2-1.2s-1.2.5-1.2 1.2V72H74.6v-1.2c0-.7-.5-1.2-1.2-1.2s-1.2.5-1.2 1.2V72h-2.5c-.7 0-1.2.5-1.2 1.2s.5 1.2 1.2 1.2h2.5V77h-2.5c-.7 0-1.2.5-1.2 1.2s.5 1.2 1.2 1.2h2.5v2.5c-2.7.1-4.9 2.4-4.9 5.2v2.2c0 .7.5 1.2 1.2 1.2h3.7v4.9c0 .7.5 1.2 1.2 1.2s1.2-.5 1.2-1.2v-4.9h14.8v4.9c0 .7.5 1.2 1.2 1.2s1.2-.5 1.2-1.2v-4.9h3.7c.8.1 1.3-.4 1.4-1.2zM74.6 74.5h14.8V77H74.6v-2.5zm0 4.9h14.8v2.5H74.6v-2.5zm19.7 8.7H69.6v-1c0-1.5 1.2-2.7 2.7-2.7h19.3c1.5 0 2.7 1.2 2.7 2.7v1zM36.9 33.7c2.7 0 4.9 2.2 4.9 4.9 0 .7.5 1.2 1.2 1.2s1.2-.5 1.2-1.2c0-3.5 2.7-6.2 6.2-6.2.7 0 1.2-.5 1.2-1.2s-.5-1.2-1.2-1.2c-3.3 0-6.1 1.8-7.5 4.4-1.4-2-3.6-3.1-6.1-3.1-.7 0-1.2.5-1.2 1.2s.5 1.2 1.3 1.2z"/><path class="st4" d="M190.2 73.1v-3.2c0-1.8-1.4-3.2-3.2-3.2h-8.6c-1.8 0-3.2 1.4-3.2 3.2v3.2h-7.5v23.7h30.1V73.1h-7.6zm-11.8-4.3h8.6c.6 0 1.1.5 1.1 1.1v3.2h-10.8v-3.2c0-.7.5-1.1 1.1-1.1zm17.2 25.8h-25.8V84.3c.7.4 1.4.6 2.2.6h1.1V87h2.2v-2.2h15.1V87h2.2v-2.2h1.1c.8 0 1.5-.2 2.2-.6l-.3 10.4zm-14-11.9v-1.1h2.2v1.1h-2.2zm14-2.1c0 1.2-1 2.2-2.2 2.2h-1.1v-2.2h-2.2v2.2h-4.3v-3.2h-6.5v3.2H175v-2.2h-2v2.2h-1.1c-1.2 0-2.2-1-2.2-2.2v-5.4h25.8l.1 5.4zm-39.8-31.2h-1.5c2.3-1.8 3.6-4.6 3.6-7.5v-5.4c0-3.6-2.9-6.5-6.5-6.5h-.6c-.9 0-1.8.3-2.6.8-.8-.5-1.7-.8-2.6-.8h-.6c-3.6 0-6.5 2.9-6.5 6.5v5.4c0 2.9 1.3 5.7 3.6 7.5h-1.5c-5.3 0-9.7 4.3-9.7 9.7v10.8c0 3.6 2.9 6.5 6.5 6.5v20.5H159V76.3c3.6 0 6.5-2.9 6.5-6.5V59.1c0-5.4-4.4-9.7-9.7-9.7zm-15.1-12.9c0-2.4 1.9-4.3 4.3-4.3h.6c.7 0 1.3.3 1.8.8l.8.8.8-.8c.5-.5 1.1-.8 1.8-.8h.6c2.4 0 4.3 1.9 4.3 4.3v3.8c-.2-.2-.4-.5-.4-.8l-.4-1.9c-.3-1.3-1.4-2.3-2.8-2.3h-.7c-1.1 0-2 .6-2.5 1.6l-.1.2c-.2.5-1 .5-1.2 0l-.1-.2c-.5-1-1.5-1.6-2.5-1.6h-.7c-1.3 0-2.5.9-2.8 2.3l-.4 1.9c-.1.3-.2.6-.4.8v-3.8zm.1 6.2c1.3-.4 2.2-1.5 2.5-2.8l.4-1.9c.1-.3.3-.5.7-.5h.7c.3 0 .5.1.6.4l.1.2c.5 1 1.5 1.6 2.5 1.6 1.1 0 2-.6 2.5-1.6l.1-.2c.1-.2.3-.4.6-.4h.7c.3 0 .6.2.7.5l.4 1.9c.3 1.3 1.2 2.4 2.5 2.8-.4 3.7-3.6 6.6-7.5 6.6-3.9.1-7.1-2.8-7.5-6.6zm10.1 8.8l-2.6 6-2.6-6h5.2zm-13.4 22.6c-2.4 0-4.3-1.9-4.3-4.3h4.3v4.3zm9.7 20.5h-7.5v-2.2h7.5v2.2zm9.7 0h-7.5v-2.2h7.5v2.2zm0-4.3h-7.5V78.4h-2.2v11.8h-7.5V74.1h17.2v16.2zm2.1-16.2v-4.3h4.3c0 2.4-1.9 4.3-4.3 4.3zm4.3-6.4H159V56.9h-2.2V72h-17.2V56.9h-2.2v10.8h-4.3v-8.6c0-4.1 3.2-7.4 7.2-7.5h2.8l5 12 5-12h2.8c4 .2 7.2 3.5 7.2 7.5l.2 8.6zm5.7-8.9s.4-.1.8.2c0 0 .6.4.5.7l-.4 1.8s-.1.3.2.5l1.4.5s.4 0 .5-.3l.6-1.1s.2-.5.9-.5c0 0 .7-.1.9.3l.8 1.3s.1.3.6.1l1.3-.5s.4-.2.2-.5l-.4-1.4s-.2-.4.2-.8c0 0 .4-.6.9-.5l1.5.4s.3.1.6-.3l.5-1.2s.2-.4-.3-.6l-1.3-.7s-.4-.2-.3-.8c0 0-.1-.7.4-1l1.2-.7s.4-.2.2-.6l-.5-1.2s-.2-.5-.7-.3l-1.4.5s-.5 0-.8-.3c0 0-.5-.5-.4-.9l.3-1.4s.1-.4-.2-.6l-1.5-.6s-.3 0-.4.2l-.8 1.5s-.4.3-.9.2c0 0-.6-.1-.7-.2 0 0-.8-1.4-.9-1.5 0 0-.2-.3-.5-.2l-1.1.7s-.3.2-.2.4l.5 1.8s-.1.4-.4.7c0 0-.6.4-.8.4l-1.5-.4s-.4-.2-.6.2l-.6 1.3s-.1.3.2.5l1.5.8s.5.2.3 1c0 0 0 .6-.6.9-.6.3-1.1.6-1.1.6s-.3.2-.2.5c.1.3.7 1.3.7 1.3s.1.2.6.1l1.2-.3zm3.5-5.9c1.4-.6 3.1.1 3.7 1.5.6 1.4-.1 3.1-1.5 3.7-1.4.6-3.1-.1-3.7-1.5-.6-1.5.1-3.1 1.5-3.7zm2.5-13.5l2 1.1s.6.3.4 1.4c0 0 0 .8-.8 1.2-.8.4-1.5.9-1.5.9s-.4.2-.2.7.9 1.8.9 1.8.1.3.8.1l1.7-.5s.5-.2 1 .3c0 0 .7.5.7.9l-.5 2.4s-.2.4.3.7l1.9.7s.5.1.7-.4l.8-1.5s.3-.7 1.2-.6c0 0 .9-.1 1.2.4l1.1 1.8s.2.5.8.2l1.7-.7s.5-.3.3-.7l-.5-1.8s-.2-.5.3-1c0 0 .5-.9 1.3-.7l2 .5s.4.2.8-.4l.7-1.6s.2-.6-.4-.8l-1.7-1s-.5-.2-.4-1.1c0 0-.1-.9.5-1.3l1.7-1s.5-.2.3-.8l-.7-1.6s-.2-.6-.9-.4l-1.9.6s-.7 0-1.1-.5c0 0-.7-.7-.5-1.2l.4-1.9s.1-.6-.3-.8l-2-.7s-.4 0-.6.3l-1.1 2s-.5.4-1.2.3c0 0-.8-.1-.9-.3 0 0-1.1-1.9-1.2-2 0 0-.2-.4-.6-.3l-1.8.8s-.4.2-.3.6l.6 2.4s-.1.6-.6.9c0 0-.7.5-1.1.5l-2-.5s-.6-.2-.8.3l-.7 1.8c0-.1-.1.2.2.5zm8-1.4c1.9-.8 4.2.1 5 2 .8 1.9-.1 4.1-2 4.9-1.9.8-4.2-.1-5-2-.8-1.9.1-4.1 2-4.9z"/><path class="st5" d="M365.8 70.5L358.4 82s-3.1-9.2-12.6-9.5h-7c-7.4.3-10.8 6.8-12.7 11.7l-2.5 6.5c-.3.9.1 1.8.9 2.2.2.1.4.1.6.1.6 0 1.2-.4 1.5-1l2.5-6.5c2.3-5.9 4.9-8.9 8.6-9.5l.9 4.7-1.3 11.9c-.1.6.2 1.1.6 1.5l2.8 2.4c.3.2.6.4 1 .4h1c.4 0 .7-.1 1-.4l2.8-2.4c.4-.4.7-.9.6-1.5l-1.1-12 .9-4.7c7.7.5 10.1 9.6 10.1 9.6.2.5.6.9 1.1 1 .5.1 1.1 0 1.4-.4l8.4-13.2c.7-.6.7-1.7.1-2.4-.5-.6-1.5-.7-2.2 0 0-.1 0-.1 0 0zm-22.1 5.3l-.6 3.1h-1.4l-.6-3.1h2.6zm-1.4 17.5l-1.6-1.4 1-9.7h1.2l1 9.7-1.6 1.4zm1.7-41.5c-.6-.1-1.1-.2-1.7-.2-4.9 0-8.8 4.1-8.8 9.2s4 9.2 8.8 9.2c4.9 0 8.8-4.1 8.8-9.2.1-4.4-3-8.2-7.1-9 .1 0 .1 0 0 0zm3.9 9c0 3.2-2.5 5.9-5.6 5.9-3.1 0-5.6-2.6-5.6-5.9 0-2.1 1.1-4 2.8-5.1-.2.5-.2 1 .1 1.5.4.8 1.4 1.1 2.2.6 1.1-.6 2-1.5 2.7-2.5 2 1 3.4 3.1 3.4 5.5zm1.4-10.5c.7 0 1-.4 1-1.1v-9.1c-.1-.4-.2-.7-.4-.9-.2-.2-.5-.3-.7-.3H346c-.6 0-1 .4-1 1.1 0 .8.4 1.1 1 1.1h1.5c.5 0 .7.3.7.9v7.1c.1.8.4 1.2 1.1 1.2zm7.1-9.9c-.6 0-1 .4-1 1.2v1.9h-1.7c-.7 0-1 .4-1 1.1 0 .7.3 1.1 1 1.1h1.7v2c0 .7.3 1.1 1 1.1.6 0 1-.4 1-1.2v-2h1.8c.6 0 1-.4 1-1.1 0-.7-.3-1.1-1-1.1h-1.7v-2c-.2-.6-.5-1-1.1-1zm8.2 9.9c.7 0 1-.4 1-1.1v-9.1c-.1-.4-.2-.7-.4-.9-.2-.2-.5-.3-.7-.3h-3.1c-.6 0-1 .4-1 1.1 0 .8.3 1.1 1 1.1h1.5c.5 0 .7.3.7.9v7.1c0 .8.3 1.2 1 1.2zm9.7-4.6h-3.9c-.7 0-1 .4-1 1.1 0 .8.4 1.1 1 1.1h3.9c.6 0 1-.4 1-1.1 0-.8-.3-1.1-1-1.1zm0-3.2h-3.9c-.7 0-1 .4-1 1.1 0 .8.4 1.1 1 1.1h3.9c.6 0 1-.4 1-1.1 0-.7-.3-1.1-1-1.1zm9.9.9h-3.6c-.7 0-1.4.3-2.1.8-.7.6-1 1.4-1 2.5v3.4h8.9c.6 0 .9-.3.9-1.1s-.3-1.1-.8-1.1h-7.1v-1.2c0-.3 0-.5.1-.6.1-.4.5-.5 1.1-.5h3.6c.7 0 1.4-.3 2.1-.8.7-.6 1-1.4 1-2.6 0-.7-.2-1.4-.5-1.9-.6-1-1.8-1.5-3.5-1.5h-5c-.6 0-.9.4-.9 1.1s.3 1.1.9 1.2h5c.6 0 1.1 0 1.4.1.2.1.4.2.5.3.1.1.1.3.1.7 0 .2 0 .4-.1.6-.1.5-.4.6-1 .6z"/><path class="st5" d="M394.8 30h-58.7c-.8 0-1.4.7-1.4 1.5V44c0 .8.6 1.5 1.4 1.5.8 0 1.4-.7 1.4-1.5V33h55.9v42.5h-18.3c-.8 0-1.4.7-1.4 1.5s.6 1.5 1.4 1.5h19.8c.8 0 1.4-.7 1.4-1.5V31.5c0-.8-.7-1.5-1.5-1.5z"/><path class="st6" d="M459.1 94.3c-.6-1.9-2.4-3.3-4.4-3.3H448v-1c2.7-.1 5.3-.7 7.8-1.8.3-.1.5-.4.7-.7.1-.3.1-.6 0-.9l-.4-1c-.3-.6-1-.9-1.6-.7-.6.2-.9.9-.7 1.4-1.9.7-3.8 1-5.8 1.2-.1-.7-.7-1.1-1.4-1.1-.5.1-1 .5-1.1 1.1-8.1-.5-15.3-5.6-18.4-13.1-4.3-10.4.2-22.4 10.4-27.2.3.5 1 .8 1.5.5.3-.1.5-.4.7-.7.1-.3.1-.6 0-.9l-.4-1c-.3-.6-1-.9-1.6-.7-12 5-17.8 18.9-12.8 30.9 3.5 8.4 11.6 14.1 20.6 14.6v1h-6.7c-2 0-3.8 1.3-4.3 3.3-.7 0-1.2.5-1.2 1.2s.5 1.2 1.2 1.2h24.6c.7 0 1.2-.6 1.2-1.2-.1-.6-.6-1.1-1.2-1.1zm-21.9 0c.4-.5 1-.9 1.7-.9h15.9c.7 0 1.3.3 1.7.9h-19.3z"/><path class="st6" d="M439.5 48.7c-4.8 1.9-8.6 5.7-10.5 10.5-1.9 4.7-1.9 10 .1 14.6 2 4.7 5.7 8.4 10.4 10.3 2.3.9 4.7 1.4 7.2 1.4s4.9-.5 7.2-1.4h.1c4.8-2 8.6-5.7 10.5-10.5 1.9-4.7 1.9-10-.1-14.6-2-4.7-5.7-8.4-10.4-10.3-2.3-.9-4.7-1.4-7.2-1.4-2.4 0-4.8.5-7.1 1.4h-.2zm-2.3 8.3c.2-2.7 1-4.8 2.2-5.8l3.1 7.8c-1.7.7-3.5 1.3-5.2 1.9-.2-1.4-.2-2.7-.1-3.9zM448 67l6.2-2.5c.7 1.8 1.2 3.6 1.5 5.5-1.9.6-3.8 1.3-5.7 2l-2-5zm.1 5.8c-1.9.8-3.7 1.6-5.5 2.5-1.1-1.6-2-3.3-2.7-5.1l6.2-2.5 2 5.1zm-.9-7.7l-2-5c1.9-.8 3.7-1.6 5.5-2.5 1 1.6 2 3.3 2.7 5.1l-6.2 2.4zm-1.9.7l-6.2 2.5c-.7-1.8-1.2-3.6-1.5-5.5 1.9-.6 3.8-1.3 5.7-2l2 5zM430.8 60c1.1-2.6 2.8-5 5-6.8-.3 1.1-.6 2.3-.6 3.6-.1 1.4 0 2.9.2 4.5-2.4.7-4.1 1-5.3 1.2.1-.8.4-1.7.7-2.5zm-1.2 4.6c1.1-.1 3.1-.4 6-1.2.4 1.9.9 3.9 1.6 5.7l-6.8 2.7c-.7-2.3-1-4.7-.8-7.2zm1.6 9.1L438 71c.8 1.8 1.7 3.6 2.8 5.2-2.6 1.4-4.3 2.6-5.2 3.3-1.8-1.6-3.3-3.5-4.4-5.8zm9 8.5c-1-.4-1.9-.9-2.8-1.5 1-.7 2.5-1.7 4.6-2.9 1.1 1.4 2.2 2.7 3.4 3.7.9.8 1.8 1.4 2.6 1.8-2.6.3-5.3-.1-7.8-1.1zm10.2.1c-1.2-.3-2.4-1.1-3.7-2.2-1-.9-2-1.9-2.9-3.1 1.7-.8 3.4-1.6 5.1-2.3l3.2 7.8c-.6 0-1.1-.1-1.7-.2zm5.7-6.4c-.2 2.7-1 4.8-2.2 5.8l-3.1-7.8c1.7-.7 3.5-1.3 5.2-1.9.2 1.3.2 2.6.1 3.9zm6.4-3.1c-1.1 2.6-2.8 5-5 6.8.3-1.1.6-2.3.6-3.6.1-1.4 0-2.9-.2-4.5 2.4-.7 4.1-1 5.3-1.2-.1.8-.4 1.7-.7 2.5zm1.2-4.6c-1.1.1-3.1.4-6 1.2-.4-1.9-.9-3.9-1.6-5.7l6.8-2.8c.8 2.4 1 4.8.8 7.3zm-1.6-9.1l-6.8 2.7c-.8-1.8-1.7-3.6-2.8-5.2 2.6-1.4 4.3-2.6 5.2-3.3 1.8 1.6 3.4 3.5 4.4 5.8zm-9-8.5c1 .4 1.9.9 2.8 1.5-1 .7-2.5 1.7-4.6 2.9-1.1-1.4-2.2-2.7-3.4-3.7-.9-.8-1.8-1.4-2.6-1.8 2.7-.3 5.3.1 7.8 1.1zm-10.2-.1c1.2.3 2.4 1.1 3.7 2.2 1 .9 2 1.9 2.9 3.1-1.7.8-3.4 1.6-5.1 2.3l-3.2-7.8c.6 0 1.2.1 1.7.2zm24.4-10.4c1.2 1.9 3.3 3.1 5.6 3.1h12.7v-2h-1V32h1v-2h-12.7c-2.3 0-4.4 1.2-5.6 3.1-1.2-1.9-3.3-3.1-5.6-3.1H449v2h1v9.2h-1v2h12.7c2.2 0 4.3-1.1 5.6-3.1zm13.2-8.1h2v9.2h-2V32zm-4.1 0h2v9.2h-2V32zm-4.1.1c.2 0 .3-.1.5-.1h1.5v9.2h-1.5c-.2 0-.3 0-.5-.1v-9zm-2 .7v7.6c-1.3-.8-2-2.3-2-3.8 0-1.6.8-3 2-3.8zm-6.1 0c1.3.8 2 2.3 2 3.8s-.8 3-2 3.8v-7.6zM454 41.2h-2V32h2v9.2zm4.1 0h-2V32h2v9.2zm2-9.2h1.5c.2 0 .3 0 .5.1v9.1c-.2 0-.3.1-.5.1h-1.5V32zm31 51.8l-8.1-8V60c0-.6-.5-1-1-1h-8.2c-.6 0-1 .5-1 1v15.8l-8.1 8c-1.5 1.5-1.9 3.6-1.1 5.5.8 1.9 2.6 3.1 4.7 3.1h19.2c2.1 0 3.9-1.2 4.7-3.1.8-1.9.4-4-1.1-5.5zM474.5 77c.2-.2.3-.4.3-.7V61h6.2v15.2c0 .3.1.5.3.7l6 6c-.3.2-.5.5-.8.7-.5.5-.7.7-1.1.7-.5 0-.7-.2-1.1-.7-.5-.6-1.2-1.3-2.6-1.3-1.4 0-2.1.8-2.6 1.3s-.7.7-1.1.7-.7-.2-1.1-.7c-.5-.6-1.2-1.3-2.6-1.3-1.4 0-2.1.8-2.6 1.3s-.7.7-1.1.7-.7-.2-1.1-.7c-.2-.3-.5-.5-.8-.7l5.8-5.9zm15.8 11.6c-.4.9-1.3 1.9-2.8 1.9h-19.2c-1.5 0-2.5-1-2.8-1.9-.4-.9-.4-2.3.7-3.3l.8-.8c.3.1.4.3.8.6.5.6 1.2 1.3 2.6 1.3 1.4 0 2.1-.8 2.6-1.3s.7-.7 1.1-.7c.5 0 .7.2 1.1.7.5.6 1.2 1.3 2.6 1.3 1.4 0 2.1-.8 2.6-1.3s.7-.7 1.1-.7c.5 0 .7.2 1.1.7.5.6 1.2 1.3 2.6 1.3 1.4 0 2.1-.8 2.6-1.3.3-.3.5-.5.8-.6l.8.8c1.3 1 1.3 2.4.9 3.3zM481 50.9h2.1v2H481v-2zm0 4h2.1v2H481v-2zm-4.1-5h2v2h-2v-2zm0 4h2v2h-2v-2zm-4.1-3h2.1v2h-2.1v-2zm0 4h2.1v2h-2.1v-2z"/><path class="st6" d="M484.7 48.9v17.7c0 1.8 1.5 3.3 3.4 3.3s3.4-1.5 3.4-3.3v-2.2h-2.2v2.2c0 .6-.5 1.1-1.1 1.1-.6 0-1.1-.5-1.1-1.1V48.9h-2.4z"/><path class="st6" d="M489.2 60h2.2v2.2h-2.2V60z"/><path class="st7" d="M618.6 90.9h30.3c.3 0 .6-.2.8-.4.1-.2.2-.4.2-.7V75.4c0-2.3-1.3-4.3-3.4-5.2l-6.3-2.8c-.4-.2-.7-.6-.7-1.1v-1.7c2.2-1.7 3.5-4.4 3.5-7.2V55c.7-.4 1.2-1.2 1.2-2v-.2c0-5.1-4.1-9.2-9.2-9.2h-2.3c-5.1 0-9.2 4.1-9.2 9.2V55c0 .7.3 1.4.9 1.8.1.1.2.1.3.2v.5c0 2.8 1.3 5.5 3.5 7.2v1.7c0 .5-.3.9-.7 1.1l-6.3 2.8c-2.1.9-3.4 3-3.4 5.2v14.4c-.3.5.2 1 .8 1zm19.1-23l-4 4-4-4c.3-.5.5-1.1.5-1.7v-.4c1.1.5 2.3.7 3.6.7 1.2 0 2.4-.2 3.6-.7v.4c-.2.6 0 1.2.3 1.7zm10 7.5V89h-3.6v-9.4c0-.6.3-1.2.7-1.7l2.9-2.9v.4zm-2.1-3.3c.4.2.8.5 1.1.8l-3.5 3.5c-.9.9-1.3 2-1.3 3.2V89h-7.1V74l4.6-4.6 6.2 2.7zm-20.1-17.3v-2.2c0-3.9 3.2-7.1 7.1-7.1h2.3c3.9 0 7.1 3.2 7.1 7.1v.3c-6.5 1.3-9.8-1.1-10.9-2.2-.4-.4-2.2-1.8-2.6-1.3-.4.4.6 2.5 1.1 2.9h.1c-.5.5-1.2 1.1-1.5 1.4-.6.5-1.3.8-1.8 1-.5 0-.7.1-.9.1zm1.1 2.4v-.5c.7-.3 1.3-1.1 2-1.6l.2-.2c.3-.3.6-.7.9-1.2.2-.3.3-.6.4-.9 3.3 2.8 7.8 2.8 10.6 2.5v2c0 3.9-3.2 7-7.1 7.1-3.8-.1-7-3.3-7-7.2zm-4.8 14.9l6.2-2.8 4.6 4.6V89h-7.1v-9.4c0-1.2-.5-2.4-1.3-3.2l-3.5-3.5c.3-.3.6-.6 1.1-.8zm-2.1 3.3V75l2.9 2.9c.5.5.7 1.1.7 1.7V89h-3.6V75.4zm47.5-32.6c-1.8-.7-3.7.2-4.4 1.9-.6 1.7.3 3.6 2.1 4.3 1.7.6 3.6-.3 4.2-2 .7-1.6-.2-3.6-1.9-4.2z"/><path class="st7" d="M682.4 41.6c-.2-.8-.6-1.4-1.4-2-.6-.6-1.3-1.1-2.5-1.5-1-.4-2-.6-3-.7V37c-.1-1.6-.5-3-1-4.2-.3-.7-.6-1.1-1.1-1.6-.4-.4-.9-.8-1.4-1-.7-.2-1.2-.3-1.8-.2-1 .1-2.2.5-3.2 1.2-.9.6-1.7 1.3-2.4 2-.9-.6-1.9-1.2-2.8-1.5-1-.4-1.9-.5-2.7-.4-.9 0-1.7.2-2.4.6-.9.7-1.3 1.5-1.6 2.2-.3.9-.5 1.9-.5 3.3.1 1.4.4 3 1 4.4-.1 0-.2.1-.2.1-.1.1-.2.2-.3.2-.2.1-.3.2-.5.3-1 .7-1.9 1.3-2.6 2.2-.9.8-1.5 1.7-1.8 2.8-.3.9-.4 1.8-.1 2.6.2.9.7 1.6 1.5 2.2.5.5 1.3.9 2.4 1.3 1 .3 2 .6 3.1.8v.3c.1 1.6.4 3 1 4.2.4.6.7 1.1 1.1 1.5.5.5.9.8 1.6 1 .5.2 1.1.3 1.7.2 1.3 0 2.4-.6 3.4-1.2.7-.5 1.5-1.2 2.2-2 .9.6 1.8 1 2.8 1.4 1 .3 1.8.5 2.6.5s1.6-.2 2.5-.7c.7-.4 1.3-1.2 1.7-2.2.3-.9.5-2 .4-3.3-.1-1.3-.4-2.7-.9-4.4.2-.1.3-.2.5-.3 1.2-.8 2.2-1.6 3.1-2.4.8-.9 1.4-1.9 1.7-2.8.1-.7.1-1.6-.1-2.5zm-8.6 5.9c.3.6.5 1 .6 1.5-.3.1-.7.3-1.1.5l-.4.2.1-.2c.1-.3.3-.6.4-.9l.3-.9.1-.2zm-3.1-8.4h2.8c0 .4 0 .8-.1 1.2v.2c0 .7-.1 1.3-.2 1.9l-.4-.6-.2-.3c-.7-.9-1.3-1.7-1.9-2.4zm1.8 6.1c-.2.8-.5 1.7-.9 2.8-.3.9-.7 1.8-1.1 2.7l-.2.1c-.8.3-1.7.6-2.6.8-1.4.4-2.8.6-4.2.8-.9-1.1-1.8-2.1-2.6-3.3-.5-.7-.9-1.4-1.3-2.1l-.2-.4c.2-.9.6-1.9.9-2.8.4-1 .7-1.9 1.1-2.8.9-.3 1.8-.6 2.7-.8 1.4-.4 2.8-.6 4.2-.8 1 1.1 1.9 2.2 2.5 3.3.7.8 1.3 1.6 1.7 2.5zm-6.6-10.9c1.1-1 2.1-1.7 3-2 .4-.2.8-.3 1.3-.4.4 0 .7 0 1 .1.3.1.6.3.9.6.4.5.8 1.1 1.1 2.2.2.7.4 1.6.4 2.4h-1.5c-.5 0-1 0-1.5.1-.4 0-.8 0-1.2.1l-1.8-1.8-.3-.3c-.5-.4-.9-.7-1.4-1zm-1.2 1.5c.2.1.3.3.5.4.2.2.4.4.7.6.3.2.5.5.8.7l.2.2-.4.1c-.9.2-1.8.3-2.7.6-.2.1-.4.1-.6.2-.1 0-.3.1-.4.1.6-1.1 1.2-2.1 1.9-2.9zm-8.1-1c.2-.6.5-1 .9-1.2h.1c.3-.2.8-.4 1.3-.4.6.1 1.2.2 2 .5.7.3 1.5.7 2.2 1.1-.3.3-.6.8-.9 1.3-.8 1-1.5 2.2-2.1 3.6-1.1.4-2.2.9-3.2 1.3v-.1c-.3-1.4-.6-2.5-.6-3.5v-.1c-.1-.9 0-1.7.3-2.5zm0 17.6c-1-.1-1.7-.3-2.4-.6-.8-.3-1.4-.7-1.8-1l-.1-.1c-.5-.3-.7-.7-.9-1.1 0-.5-.1-1 .1-1.5.2-.6.7-1.3 1.4-2.1.9-.9 1.9-1.7 3-2.3.4 1.1.9 2.2 1.5 3.2-.5 2.2-.8 4-.8 5.5zm1.6-8.2c-.2-.5-.5-1-.6-1.5.4-.2.9-.4 1.4-.6h.1c-.2.3-.3.7-.5 1.1-.2.2-.3.6-.4 1zm.3 7.3v-.3c0-.6.2-1.3.3-2 .2.3.4.6.6.8.6.9 1.2 1.7 1.8 2.5h-2.8c.1-.2.1-.6.1-1zm4.8 8c-.4.2-.8.3-1.2.3h-.1c-.8.2-1.4 0-1.8-.7l-.1-.1c-.5-.4-.9-1-1.2-2.1-.2-.7-.3-1.6-.4-2.5.5.1.9.1 1.5.1 1 0 1.9-.1 2.8-.2.7.7 1.4 1.4 2.1 2 .1.1.3.2.4.3.3.2.5.5.8.7-.9 1-2 1.8-2.8 2.2zm4.1-3.6l-1.2-.9-.7-.7-.2-.2c.7-.1 1.4-.3 2.1-.4.3-.1.6-.1.9-.2.3-.1.7-.2 1.1-.3-.7 1-1.4 1.9-2 2.7zm8.1 1c-.3.7-.5 1-1 1.4-.3.2-.7.3-1.2.3h-.1c-.7 0-1.3-.1-2.1-.4-.7-.3-1.4-.6-2.2-1.1l.9-1.2c.8-1 1.5-2.2 2.2-3.7 1.1-.4 2.2-.8 3.1-1.4l.1.1c.3 1.1.5 2.3.7 3.2v.3c0 1.2-.3 2.1-.4 2.5zm5-13.2c-.2.6-.7 1.3-1.4 2.1-.8.8-1.7 1.5-2.9 2.3-.5-1-1-2.1-1.5-3.1.5-2.1.8-4 .8-5.6.2 0 .4.1.6.1.7.1 1.4.3 1.8.5.8.3 1.5.5 1.9.9.5.4.7.8.9 1.3 0 .3 0 .9-.2 1.5zm.2 24.4c0-.4-.4-.8-.8-.8h-17.8c-2.5 0-4.6 2.1-4.6 4.6v20c0 2.5 2.1 4.6 4.6 4.6h17.8c.4 0 .8-.4.8-.8v-20c0-.4-.4-.8-.8-.8h-17.8c-1.7 0-3-1.3-3-3s1.3-3 3-3h17.8c.5 0 .8-.4.8-.8zm-18.6 8.4h17v18.4h-17c-1.7 0-3-1.3-3-3V75.4c.8.7 1.9 1.1 3 1.1z"/><path class="st7" d="M662.5 70.8c-.5 0-.9.4-.9 1s.4 1 .9 1h15.1c.5 0 .9-.4.9-1 0-.5-.4-1-.9-1h-15.1z"/><circle class="st7" cx="674.9" cy="80.5" r="2.2"/><path class="st8" d="M839.4 83.1V66.6c-.7.4-1.4.8-2.2 1.1v12H828c-.1-.8-.5-1.5-1-2.1-.7-.7-1.6-1.1-2.6-1.1s-1.9.4-2.6 1.1c-.6.6-.9 1.3-1 2.1h-9.2V48.3h12.2v-2.2h-12.2V45c0-1.4 1.2-2.6 2.6-2.6h9.6v-2.2h-9.6c-2.7 0-4.8 2.2-4.8 4.8v38.1c0 2.7 2.2 4.8 4.8 4.8h20.5c2.6 0 4.7-2.1 4.7-4.8zm-27.9 0v-1.3h9.5c.2.4.4.7.7 1 .7.7 1.6 1.1 2.6 1.1s1.9-.4 2.6-1.1c.3-.3.5-.6.7-1h9.5v1.3c0 1.4-1.2 2.6-2.6 2.6H814c-1.3 0-2.5-1.1-2.5-2.6zm22.1-36.8h29c.6 0 1.1-.6 1.1-1.2s-.5-1-1.1-1.1h-29c-.6 0-1.1.5-1.1 1.2 0 .6.5 1.1 1.1 1.1zm7.3-6h21.8c.6 0 1.1-.6 1.1-1.2s-.5-1-1.1-1.1h-21.8c-.6 0-1.1.5-1.1 1.2 0 .6.5 1.1 1.1 1.1zm-7.3 0h2.4c.6 0 1.1-.6 1.1-1.2s-.5-1-1.1-1.1h-2.4c-.6 0-1.1.5-1.1 1.2 0 .6.5 1.1 1.1 1.1zm29 9.8h-8.5c-.6 0-1.1.5-1.1 1.1 0 .6.5 1.1 1.1 1.1h8.5c.6 0 1.1-.5 1.1-1.1.1-.6-.4-1.1-1.1-1.1zm-29 2.3h15.7c.6 0 1.1-.5 1.1-1.1 0-.6-.5-1.1-1.1-1.1h-15.7c-.6 0-1.1.5-1.1 1.1 0 .6.5 1.1 1.1 1.1z"/><path class="st8" d="M831.2 59.6h2.7c-.6 1.5-1.4 2.9-2.4 4.1-.6.8-.7 1.9-.1 2.7.5.8 1.5 1.2 2.5 1 6.5-1.5 10.2-5 12.3-7.9H865c3.3 0 6-2.7 6-6V36.7c0-3.3-2.7-6-6-6h-33.8c-3.3 0-6 2.7-6 6v16.9c.1 3.4 2.7 6 6 6zm-3.7-22.9c0-2 1.7-3.7 3.7-3.7H865c2 0 3.7 1.7 3.7 3.7v16.9c0 2-1.7 3.7-3.7 3.7h-19.5c-.4 0-.7.2-.9.5-1.8 2.6-5.2 6-11.3 7.4V65c1.5-1.9 2.6-4 3.3-6.3.2-.6-.2-1.2-.8-1.4h-4.6c-2 0-3.7-1.7-3.7-3.7V36.7zm38.3 44.2v-2.6h9.3v-.5h-22.6v-3.3h1.7v-1.8h-1.7V65h-2.9l-5.2 8v1.6h5.8v3.3h-7.6v.5h14l-1.1 8.7c.7-.1 1.4-.2 2.4-.2 3.5 0 5 1.3 5 3.3 0 2.1-1.9 3.2-3.8 3.2-1.6 0-3.1-.5-3.9-.9l-.7 2.5c.9.5 2.6 1 4.7 1 4.3 0 7.1-2.7 7.1-6.1 0-2.1-1-3.6-2.3-4.5-1.2-.8-2.7-1.1-4.3-1.1-.4 0-.9 0-1.3.1l.5-3.5h6.9zm-19.1-8.3l2.4-3.6c.4-.7.7-1.4 1.1-2.2h.1c-.1.8-.1 1.5-.1 2.2v3.5l-3.5.1zm-31 18.1h33.6v1.1h-33.6v-1.1z"/><path class="st0" d="M536.9 173.7h-5.3v2h13v-2h-5.3v-14h18.2v-2.3h-2.3v-25h2.3v-2.3h-38.7v2.3h2.3v25h-2.3v2.3H537v14h-.1zm-13.6-16.3v-25h29.6v25h-29.6zm6.3 26.8c0 3 2.4 5.4 5.4 5.4 3 0 5.4-2.4 5.4-5.4s-2.4-5.4-5.4-5.4c-3 0-5.4 2.5-5.4 5.4zm9 0c0 2-1.6 3.6-3.6 3.6s-3.6-1.6-3.6-3.6 1.6-3.6 3.6-3.6 3.6 1.7 3.6 3.6zm10.8 0c0 3 2.4 5.4 5.4 5.4 3 0 5.4-2.4 5.4-5.4s-2.4-5.4-5.4-5.4c-3 0-5.4 2.5-5.4 5.4zm9 0c0 2-1.6 3.6-3.6 3.6s-3.6-1.6-3.6-3.6 1.6-3.6 3.6-3.6 3.6 1.7 3.6 3.6zm3.3 7.5c-.2-.2-.4-.3-.6-.3h-12.6c-.2 0-.5.1-.6.3l-3 3-3-3c-.2-.2-1.3-.3-1.5-.3h-11c-.2 0-1.2.1-1.3.3l-3.6 3.6c-.2.2-.3.4-.3.6v.9h1.8v-.5l3.1-3.1H541l3.1 3.1h1.8l3.1-3.1h11.9l3.1 3.1v.5h1.8v-.9c0-.2-.1-.5-.3-.6l-3.8-3.6zm24.2-41h-2.3v-1.2c1.4-1.1 2.3-2.7 2.3-4.5v-1.1h1.1s-.1-2-.9-2.3c-.4-.2-1.4 0-1.4 0-.6 0-1.1.5-1.1 1.1v2.3c0 1.2-.6 2.3-1.7 2.9-.3.2-.6.6-.6 1v2.4l-1.1 1.1-1.1-1.1V149c0-.4-.2-.8-.6-1-1.1-.6-1.7-1.7-1.7-2.9v-4.3c1 .6 2.2.9 3.4.9h3.4c.6 0 1.1-.5 1.1-1.1 0-3.8-3.1-6.8-6.8-6.8h-3.4c-.6 0-1.1.5-1.1 1.1 0 1.4.4 2.7 1.1 3.8v6.5c0 1.8.9 3.5 2.3 4.5v1.2h-11.4v-10.3h-2.3v3.5h-3.4c-.6 0-1.1.5-1.1 1.1v6.8c0 3.1 2.6 5.7 5.7 5.7h5.7v14.8c0 .6.5 1.1 1.1 1.1h2.3V195c0 .6.5 1.1 1.1 1.1h8c3.1 0 4.4-2.6 4.4-5.7v-16.9h3.5c.6 0 1.1-.5 1.1-1.1v-15.9c.1-3.2-2.5-5.8-5.6-5.8zm-10.1-14.8h2.1c2.1 0 3.9 1.4 4.4 3.4h-2.1c-2.1 0-3.9-1.4-4.4-3.4zm8.9 54.5c0 1.9-.3 3.4-2.2 3.4h-1.1v-14.7h-2.3v14.7h-3.4v-20.4h9v17zm4.6-19.2h-2.4v-6.9h-2.1v6.9h-12.6v-14.8c0-.6-.5-1.1-1.1-1.1h-6.8c-1.9 0-3.4-1.5-3.4-3.4v-5.7h2.3v4.6c0 1.3 1 2.3 2.3 2.3h12.1l1.6 1.6v7.9h2.3v-7.9l1.6-1.6h2.9c1.9 0 3.4 1.5 3.4 3.4l-.1 14.7z"/><path class="st0" d="M537.7 133.7c-3.5 0-9 2.5-9 9 0 4.9 4 9 9 9 4.4 0 8.1-3.2 8.8-7.5v-3c-.6-4.3-4.3-7.5-8.8-7.5zm-6 12.4c-.6-1.1-.8-2.3-.8-3.5 0-3.1 2.1-6 5.2-6.8l1.1-.1v6.7l-4.7 4.7-.8-1zm6 3.6c-1.2 0-2.4-.3-3.5-1l-1-.7 4.9-5c.1-.1.2-.3.2-.4v-6.9l1.1.1c3 .8 5.2 3.7 5.2 6.8 0 3.8-3.1 7.1-6.9 7.1zm1.5 3.2h2.3v2.3h-2.3v-2.3zm4.6 0h2.3v2.3h-2.3v-2.3zm4.5 0h2.3v2.3h-2.3v-2.3zm-500.9-1.8c-9.5 0-17.3 7.8-17.3 17.3 0 9.1 7.1 16.6 16.1 17.3v9.9c0 .7.5 1.2 1.2 1.2s1.2-.5 1.2-1.2v-9.9c8.9-.6 16.1-8.2 16.1-17.3 0-9.5-7.8-17.3-17.3-17.3zm1.2 32.1v-4.4l3.3-3.3c.5-.5.5-1.2 0-1.7s-1.2-.5-1.7 0l-2.8 2.8-2.8-2.8c-.5-.5-1.2-.5-1.7 0s-.5 1.2 0 1.7l3.3 3.3v4.4c-7.6-.6-13.6-7-13.6-14.8 0-8.2 6.7-14.8 14.8-14.8 8.2 0 14.8 6.7 14.8 14.8 0 7.8-6 14.2-13.6 14.8zm23.2-26.8h14.3c2.5 0 4.4-2.1 4.4-4.8 0-2.3-1.6-4.3-3.7-4.7-.5-5.3-4.2-7.2-7.7-7.2-4.7 0-7.3 2.8-8.2 4.1-3 .4-5.2 3.1-5.2 6.3.2 3.5 2.9 6.3 6.1 6.3zm0-10.1c.5 0 .9-.2 1.1-.6 0-.2 1.9-3.5 6.3-3.5 1.9 0 5.2.7 5.2 5.8 0 .7.5 1.2 1.2 1.2h.5c1.1 0 2 1 2 2.3 0 1.4-.9 2.4-2 2.4H71.8c-2 0-3.5-1.7-3.5-3.8s1.7-3.8 3.5-3.8zm-29.4 46.8c-.7 0-1.2.5-1.2 1.2v1.2c0 .7.5 1.2 1.2 1.2s1.2-.5 1.2-1.2v-1.2c.1-.7-.4-1.2-1.2-1.2zm-4.9 0c-.7 0-1.2.5-1.2 1.2v1.2c0 .7.5 1.2 1.2 1.2s1.2-.5 1.2-1.2v-1.2c0-.7-.5-1.2-1.2-1.2zm-5 0c-.7 0-1.2.5-1.2 1.2v1.2c0 .7.5 1.2 1.2 1.2s1.2-.5 1.2-1.2v-1.2c.1-.7-.4-1.2-1.2-1.2zm29.7 0c-.7 0-1.2.5-1.2 1.2v1.2c0 .7.5 1.2 1.2 1.2s1.2-.5 1.2-1.2v-1.2c0-.7-.5-1.2-1.2-1.2zm-4.9 0c-.7 0-1.2.5-1.2 1.2v1.2c0 .7.5 1.2 1.2 1.2s1.2-.5 1.2-1.2v-1.2c0-.7-.5-1.2-1.2-1.2zm-5 0c-.7 0-1.2.5-1.2 1.2v1.2c0 .7.5 1.2 1.2 1.2s1.2-.5 1.2-1.2v-1.2c.1-.7-.4-1.2-1.2-1.2zm49.5 0c-.7 0-1.2.5-1.2 1.2v1.2c0 .7.5 1.2 1.2 1.2s1.2-.5 1.2-1.2v-1.2c0-.7-.5-1.2-1.2-1.2zm-5 0c-.7 0-1.2.5-1.2 1.2v1.2c0 .7.5 1.2 1.2 1.2s1.2-.5 1.2-1.2v-1.2c0-.7-.4-1.2-1.2-1.2zm-29.7 0c-.7 0-1.2.5-1.2 1.2v1.2c0 .7.5 1.2 1.2 1.2s1.2-.5 1.2-1.2v-1.2c.1-.7-.4-1.2-1.2-1.2zm12.4 0c-.7 0-1.2.5-1.2 1.2v1.2c0 .7.5 1.2 1.2 1.2s1.2-.5 1.2-1.2v-1.2c0-.7-.5-1.2-1.2-1.2zm5 0c-.7 0-1.2.5-1.2 1.2v1.2c0 .7.5 1.2 1.2 1.2s1.2-.5 1.2-1.2v-1.2c0-.7-.5-1.2-1.2-1.2z"/><path class="st0" d="M96.9 189.4v-2.2c0-2.8-2.3-5.1-5.1-5.2v-2.5h2.5c.7 0 1.2-.5 1.2-1.2s-.5-1.2-1.2-1.2h-2.5v-2.5h2.5c.7 0 1.2-.5 1.2-1.2s-.5-1.2-1.2-1.2h-2.5V171c0-.7-.5-1.2-1.2-1.2s-1.2.5-1.2 1.2v1.2H74.6V171c0-.7-.5-1.2-1.2-1.2s-1.2.5-1.2 1.2v1.2h-2.5c-.7 0-1.2.5-1.2 1.2s.5 1.2 1.2 1.2h2.5v2.5h-2.5c-.7 0-1.2.5-1.2 1.2s.5 1.2 1.2 1.2h2.5v2.5c-2.7.1-4.9 2.4-4.9 5.2v2.2c0 .7.5 1.2 1.2 1.2h3.7v4.9c0 .7.5 1.2 1.2 1.2s1.2-.5 1.2-1.2v-4.9h14.8v4.9c0 .7.5 1.2 1.2 1.2s1.2-.5 1.2-1.2v-4.9h3.7c.8.1 1.3-.4 1.4-1.2zm-22.3-14.8h14.8v2.5H74.6v-2.5zm0 4.9h14.8v2.5H74.6v-2.5zm19.7 8.7H69.6v-1c0-1.5 1.2-2.7 2.7-2.7h19.3c1.5 0 2.7 1.2 2.7 2.7v1zm-57.4-54.4c2.7 0 4.9 2.2 4.9 4.9 0 .7.5 1.2 1.2 1.2s1.2-.5 1.2-1.2c0-3.5 2.7-6.2 6.2-6.2.7 0 1.2-.5 1.2-1.2s-.5-1.2-1.2-1.2c-3.3 0-6.1 1.8-7.5 4.4-1.4-2-3.6-3.1-6.1-3.1-.7 0-1.2.5-1.2 1.2s.5 1.2 1.3 1.2zm153.3 39.4V170c0-1.8-1.4-3.2-3.2-3.2h-8.6c-1.8 0-3.2 1.4-3.2 3.2v3.2h-7.5v23.7h30.1v-23.7h-7.6zm-11.8-4.3h8.6c.6 0 1.1.5 1.1 1.1v3.2h-10.8V170c0-.7.5-1.1 1.1-1.1zm17.2 25.8h-25.8v-10.3c.7.4 1.4.6 2.2.6h1.1v2.2h2.2V185h15.1v2.2h2.2V185h1.1c.8 0 1.5-.2 2.2-.6l-.3 10.3zm-14-11.8v-1.1h2.2v1.1h-2.2zm14-2.2c0 1.2-1 2.2-2.2 2.2h-1.1v-2.2h-2.2v2.2h-4.3v-3.2h-6.5v3.2H175v-2.2h-2v2.2h-1.1c-1.2 0-2.2-1-2.2-2.2v-5.4h25.8l.1 5.4zm-39.8-31.2h-1.5c2.3-1.8 3.6-4.6 3.6-7.5v-5.4c0-3.6-2.9-6.5-6.5-6.5h-.6c-.9 0-1.8.3-2.6.8-.8-.5-1.7-.8-2.6-.8h-.6c-3.6 0-6.5 2.9-6.5 6.5v5.4c0 2.9 1.3 5.7 3.6 7.5h-1.5c-5.3 0-9.7 4.3-9.7 9.7V170c0 3.6 2.9 6.5 6.5 6.5V197H159v-20.5c3.6 0 6.5-2.9 6.5-6.5v-10.8c0-5.4-4.4-9.7-9.7-9.7zm-15.1-12.9c0-2.4 1.9-4.3 4.3-4.3h.6c.7 0 1.3.3 1.8.8l.8.8.8-.8c.5-.5 1.1-.8 1.8-.8h.6c2.4 0 4.3 1.9 4.3 4.3v3.8c-.2-.2-.4-.5-.4-.8l-.4-1.9c-.3-1.3-1.4-2.3-2.8-2.3h-.7c-1.1 0-2 .6-2.5 1.6l-.1.2c-.2.5-1 .5-1.2 0l-.1-.2c-.5-1-1.5-1.6-2.5-1.6h-.7c-1.3 0-2.5.9-2.8 2.3l-.4 1.9c-.1.3-.2.6-.4.8v-3.8zm.1 6.2c1.3-.4 2.2-1.5 2.5-2.8l.4-1.9c.1-.3.3-.5.7-.5h.7c.3 0 .5.1.6.4l.1.2c.5 1 1.5 1.6 2.5 1.6 1.1 0 2-.6 2.5-1.6l.1-.2c.1-.2.3-.4.6-.4h.7c.3 0 .6.2.7.5l.4 1.9c.3 1.3 1.2 2.4 2.5 2.8-.4 3.7-3.6 6.6-7.5 6.6-3.9.1-7.1-2.8-7.5-6.6zm10.1 8.8l-2.6 6-2.6-6h5.2zm-13.4 22.6c-2.4 0-4.3-1.9-4.3-4.3h4.3v4.3zm9.7 20.5h-7.5v-2.2h7.5v2.2zm9.7 0h-7.5v-2.2h7.5v2.2zm0-4.3h-7.5v-11.8h-2.2v11.8h-7.5v-16.1h17.2v16.1zm2.1-16.2v-4.3h4.3c0 2.4-1.9 4.3-4.3 4.3zm4.3-6.4H159V157h-2.2v15.1h-17.2V157h-2.2v10.8h-4.3v-8.6c0-4.1 3.2-7.4 7.2-7.5h2.8l5 12 5-12h2.8c4 .2 7.2 3.5 7.2 7.5l.2 8.6zm5.7-8.9s.4-.1.8.2c0 0 .6.4.5.7l-.4 1.8s-.1.3.2.5l1.4.5s.4 0 .5-.3l.6-1.1s.2-.5.9-.5c0 0 .7-.1.9.3l.8 1.3s.1.3.6.1l1.3-.5s.4-.2.2-.5l-.4-1.4s-.2-.4.2-.8c0 0 .4-.6.9-.5l1.5.4s.3.1.6-.3l.5-1.2s.2-.4-.3-.6l-1.3-.7s-.4-.2-.3-.8c0 0-.1-.7.4-.9l1.2-.7s.4-.2.2-.6l-.5-1.2s-.2-.5-.7-.3l-1.4.5s-.5 0-.8-.3c0 0-.5-.5-.4-.9l.3-1.4s.1-.4-.2-.6l-1.5-.6s-.3 0-.4.2l-.8 1.5s-.4.3-.9.2c0 0-.6-.1-.7-.2 0 0-.8-1.4-.9-1.5 0 0-.2-.3-.5-.2l-1.4.6s-.3.2-.2.4l.5 1.8s-.1.4-.4.7c0 0-.6.4-.8.4l-1.5-.4s-.4-.2-.6.2l-.6 1.4s-.1.3.2.5l1.5.8s.5.2.3 1c0 0 0 .6-.6.9-.6.3-1.1.6-1.1.6s-.3.2-.2.5c.1.3.7 1.3.7 1.3s.1.2.6.1l1.5-.4zm3.5-5.9c1.4-.6 3.1.1 3.7 1.5.6 1.4-.1 3.1-1.5 3.7-1.4.6-3.1-.1-3.7-1.5-.6-1.5.1-3.1 1.5-3.7zm2.5-13.5l2 1.1s.6.3.4 1.4c0 0 0 .8-.8 1.2s-1.5.9-1.5.9-.4.2-.2.7c.2.5.9 1.8.9 1.8s.1.3.8.1l1.7-.5s.5-.1 1 .3c0 0 .7.5.7.9l-.5 2.4s-.2.4.3.7l1.9.7s.5.1.7-.4l.8-1.5s.3-.7 1.2-.6c0 0 .9-.1 1.2.4l1.1 1.8s.2.5.8.2l1.7-.7s.5-.3.3-.7l-.5-1.8s-.2-.5.3-1c0 0 .5-.9 1.3-.7l2 .5s.4.2.8-.4l.7-1.6s.2-.6-.4-.8l-1.7-1s-.5-.2-.4-1.1c0 0-.1-.9.5-1.3l1.7-1s.5-.2.3-.8l-.7-1.6s-.2-.6-.9-.4l-1.9.6s-.7 0-1.1-.5c0 0-.7-.7-.5-1.2l.4-1.9s.1-.6-.3-.8l-2-.7s-.4 0-.6.3l-1.1 2s-.5.4-1.2.3c0 0-.8-.1-.9-.2 0 0-1.1-1.9-1.2-2 0 0-.2-.4-.6-.3l-1.8.8s-.4.2-.3.6l.6 2.4s-.1.6-.6.9c0 0-.7.5-1.1.5l-2-.5s-.6-.2-.8.3l-.7 1.8c0-.2-.1.1.2.4zm8-1.4c1.9-.8 4.2.1 5 2 .8 1.9-.1 4.1-2 4.9-1.9.8-4.2-.1-5-2-.8-1.9.1-4.1 2-4.9zm182.8 32.5l-7.4 11.5s-3.1-9.2-12.6-9.5h-7c-7.4.3-10.8 6.8-12.7 11.7l-2.5 6.5c-.3.9.1 1.8.9 2.2.2.1.4.1.6.1.6 0 1.2-.4 1.5-1l2.5-6.5c2.3-5.9 4.9-8.9 8.6-9.5l.9 4.7-1.3 11.9c-.1.6.2 1.1.6 1.5l2.8 2.4c.3.2.6.4 1 .4h1c.4 0 .7-.1 1-.4l2.8-2.4c.4-.4.7-.9.6-1.5l-1.3-11.9.9-4.7c7.7.5 10.1 9.6 10.1 9.6.2.5.6.9 1.1 1 .5.1 1.1 0 1.4-.4L368 173c.7-.6.7-1.7.1-2.4-.6-.6-1.6-.7-2.3 0 .1-.1.1-.1 0 0 0-.1 0-.1 0 0zm-22.1 5.3l-.7 3.1h-1.4l-.6-3.1h2.7zm-1.4 17.5l-1.6-1.4 1-9.7h1.2l1 9.7-1.6 1.4zm1.7-41.5c-.6-.1-1.1-.2-1.7-.2-4.9 0-8.8 4.1-8.8 9.2s4 9.2 8.8 9.2c4.9 0 8.8-4.1 8.8-9.2.1-4.4-3-8.1-7.1-9zm3.9 9c0 3.2-2.5 5.9-5.6 5.9-3.1 0-5.6-2.6-5.6-5.9 0-2.1 1.1-4 2.8-5.1-.2.5-.2 1 .1 1.5.4.8 1.4 1.1 2.2.6 1.1-.6 2-1.5 2.7-2.5 2 1 3.4 3.1 3.4 5.5zm1.4-10.5c.7 0 1-.4 1-1.1v-9.1c-.1-.4-.2-.7-.4-.9-.2-.2-.5-.3-.7-.3H346c-.6 0-1 .4-1 1.1 0 .8.4 1.1 1 1.1h1.5c.5 0 .7.3.7.9v7.1c.1.8.4 1.2 1.1 1.2zm7.1-9.9c-.6 0-1 .4-1 1.2v1.9h-1.7c-.7 0-1 .4-1 1.1 0 .7.3 1.1 1 1.1h1.7v2c0 .7.3 1.1 1 1.1.6 0 1-.4 1-1.2v-2h1.8c.6 0 1-.4 1-1.1 0-.7-.3-1.1-1-1.1h-1.7v-2c-.2-.6-.5-1-1.1-1zm8.2 9.9c.7 0 1-.4 1-1.1v-9.1c-.1-.4-.2-.7-.4-.9-.2-.2-.5-.3-.7-.3h-3.1c-.6 0-1 .4-1 1.1 0 .8.3 1.1 1 1.1h1.5c.5 0 .7.3.7.9v7.1c0 .8.3 1.2 1 1.2zm9.7-4.6h-3.9c-.7 0-1 .4-1 1.1 0 .8.4 1.1 1 1.1h3.9c.6 0 1-.4 1-1.1 0-.8-.3-1.1-1-1.1zm0-3.2h-3.9c-.7 0-1 .4-1 1.1 0 .8.4 1.1 1 1.1h3.9c.6 0 1-.4 1-1.1 0-.7-.3-1.1-1-1.1zm9.9 1h-3.6c-.7 0-1.4.3-2.1.8-.7.6-1 1.4-1 2.5v3.4h8.9c.6 0 .9-.3.9-1.1s-.3-1.1-.8-1.1h-7.1v-1.2c0-.3 0-.4.1-.6.1-.4.5-.5 1.1-.5h3.6c.7 0 1.4-.3 2.1-.8.7-.6 1-1.4 1-2.6 0-.7-.2-1.4-.5-1.9-.6-1-1.8-1.5-3.5-1.5h-5c-.6 0-.9.4-.9 1.1 0 .8.3 1.1.9 1.2h5c.6 0 1.1 0 1.4.1.2.1.4.2.5.3.1.1.1.4.1.7 0 .2 0 .4-.1.6-.1.4-.4.6-1 .6z"/><path class="st0" d="M394.8 130.1h-58.7c-.8 0-1.4.7-1.4 1.5V144c0 .8.6 1.5 1.4 1.5.8 0 1.4-.7 1.4-1.5v-11h55.9v42.5h-18.3c-.8 0-1.4.7-1.4 1.5s.6 1.5 1.4 1.5h19.8c.8 0 1.4-.7 1.4-1.5v-45.4c0-.8-.7-1.5-1.5-1.5zm64.3 64.3c-.6-1.9-2.4-3.3-4.4-3.3H448v-1c2.7-.1 5.3-.7 7.8-1.8.6-.3.9-1 .7-1.6l-.4-1c-.3-.6-1-.9-1.6-.7-.6.2-.9.9-.7 1.4-1.9.7-3.8 1-5.8 1.2-.1-.7-.7-1.1-1.4-1.1-.5.1-1 .5-1.1 1.1-8.1-.5-15.3-5.6-18.4-13.1-4.3-10.4.2-22.4 10.4-27.2.3.5 1 .8 1.5.5.3-.1.5-.4.7-.7.1-.3.1-.6 0-.9l-.4-1c-.3-.6-1-.9-1.6-.7-12 5-17.8 18.9-12.8 30.9 3.5 8.4 11.6 14.1 20.6 14.6v1h-6.7c-2 0-3.8 1.3-4.3 3.3-.7 0-1.2.6-1.2 1.3 0 .6.5 1.1 1.2 1.2h24.6c.7 0 1.2-.6 1.2-1.2-.1-.6-.6-1.2-1.2-1.2zm-21.9 0c.4-.5 1-.9 1.7-.9h15.9c.7 0 1.3.3 1.7.9h-19.3z"/><path class="st0" d="M439.5 148.8c-4.8 1.9-8.6 5.7-10.5 10.5-1.9 4.7-1.9 10 .1 14.6 2 4.7 5.7 8.4 10.4 10.3 2.3.9 4.7 1.4 7.2 1.4s4.9-.5 7.2-1.4h.1c4.8-2 8.6-5.7 10.5-10.5 1.9-4.7 1.9-10-.1-14.6-2-4.7-5.7-8.4-10.4-10.3-4.6-1.9-9.7-1.9-14.3 0h-.2zm-2.3 8.3c.2-2.7 1-4.8 2.2-5.8l3.1 7.8c-1.7.7-3.5 1.3-5.2 1.9-.2-1.4-.2-2.7-.1-3.9zm10.8 10l6.2-2.5c.7 1.8 1.2 3.6 1.5 5.5-1.9.6-3.8 1.3-5.7 2l-2-5zm.1 5.8c-1.9.8-3.7 1.6-5.5 2.5-1.1-1.6-2-3.3-2.7-5.1l6.2-2.5 2 5.1zm-.9-7.7l-2-5c1.9-.8 3.7-1.6 5.5-2.5 1 1.6 2 3.3 2.7 5.1l-6.2 2.4zm-1.9.7l-6.2 2.5c-.7-1.8-1.2-3.6-1.5-5.5 1.9-.6 3.8-1.3 5.7-2l2 5zm-14.5-5.8c1.1-2.6 2.8-5 5-6.8-.3 1.1-.6 2.3-.6 3.6-.1 1.4 0 2.9.2 4.5-2.4.7-4.1 1-5.3 1.2.1-.8.4-1.7.7-2.5zm-1.2 4.6c1.1-.1 3.1-.4 6-1.2.4 1.9.9 3.9 1.6 5.7l-6.8 2.7c-.7-2.3-1-4.7-.8-7.2zm1.6 9.1l6.8-2.7c.8 1.8 1.7 3.6 2.8 5.2-2.6 1.4-4.3 2.6-5.2 3.3-1.8-1.6-3.3-3.5-4.4-5.8zm9 8.5c-1-.4-1.9-.9-2.8-1.5 1-.7 2.5-1.7 4.6-2.9 1.1 1.4 2.2 2.7 3.4 3.7.9.8 1.8 1.4 2.6 1.8-2.6.4-5.3-.1-7.8-1.1zm10.2.1c-1.2-.3-2.4-1.1-3.7-2.2-1-.9-2-1.9-2.9-3.1 1.7-.8 3.4-1.6 5.1-2.3l3.2 7.8c-.6 0-1.1-.1-1.7-.2zm5.7-6.4c-.2 2.7-1 4.8-2.2 5.8l-3.1-7.8c1.7-.7 3.5-1.3 5.2-1.9.2 1.4.2 2.7.1 3.9zm6.4-3.1c-1.1 2.6-2.8 5-5 6.8.3-1.1.6-2.3.6-3.6.1-1.4 0-2.9-.2-4.5 2.4-.7 4.1-1 5.3-1.2-.1.9-.4 1.7-.7 2.5zm1.2-4.6c-1.1.1-3.1.4-6 1.2-.4-1.9-.9-3.9-1.6-5.7l6.8-2.8c.8 2.4 1 4.8.8 7.3zm-1.6-9.1l-6.8 2.7c-.8-1.8-1.7-3.6-2.8-5.2 2.6-1.4 4.3-2.6 5.2-3.3 1.8 1.6 3.4 3.6 4.4 5.8zm-9-8.5c1 .4 1.9.9 2.8 1.5-1 .7-2.5 1.7-4.6 2.9-1.1-1.4-2.2-2.7-3.4-3.7-.9-.8-1.8-1.4-2.6-1.8 2.7-.3 5.3.1 7.8 1.1zm-10.2 0c1.2.3 2.4 1.1 3.7 2.2 1 .9 2 1.9 2.9 3.1-1.7.8-3.4 1.6-5.1 2.3l-3.2-7.8c.6-.1 1.1 0 1.7.2zm24.4-10.5c1.2 1.9 3.3 3.1 5.6 3.1h12.7v-2h-1v-9.2h1v-2h-12.7c-2.3 0-4.4 1.2-5.6 3.1-1.2-1.9-3.3-3.1-5.6-3.1H449v2h1v9.2h-1v2h12.7c2.2 0 4.3-1.1 5.6-3.1zm13.2-8.1h2v9.2h-2v-9.2zm-4.1 0h2v9.2h-2v-9.2zm-4.1.1c.2 0 .3-.1.5-.1h1.5v9.2h-1.5c-.2 0-.3 0-.5-.1v-9zm-2 .7v7.6c-2.1-1.4-2.7-4.2-1.3-6.3.4-.5.8-.9 1.3-1.3zm-6.1 0c1.3.8 2 2.3 2 3.8s-.8 3-2 3.8v-7.6zm-10.2 8.4h-2v-9.2h2v9.2zm4.1 0h-2v-9.2h2v9.2zm2-9.2h1.5c.2 0 .3 0 .5.1v9.1c-.2 0-.3.1-.5.1h-1.5v-9.3zm31 51.8l-8.1-8v-15.8c0-.6-.5-1-1-1h-8.2c-.6 0-1 .5-1 1v15.8l-8.1 8c-1.5 1.5-1.9 3.6-1.1 5.5.8 1.9 2.6 3.1 4.7 3.1h19.2c2.1 0 3.9-1.2 4.7-3.1.8-1.9.4-4-1.1-5.5zm-16.6-6.8c.2-.2.3-.4.3-.7v-15.2h6.2v15.2c0 .3.1.5.3.7l6 6c-.3.2-.5.5-.8.7-.5.5-.7.7-1.1.7-.5 0-.7-.2-1.1-.7-.5-.6-1.2-1.3-2.6-1.3-1.4 0-2.1.8-2.6 1.3s-.7.7-1.1.7-.7-.2-1.1-.7c-.5-.6-1.2-1.3-2.6-1.3-1.4 0-2.1.8-2.6 1.3s-.7.7-1.1.7-.7-.2-1.1-.7c-.2-.3-.5-.5-.8-.7l5.8-6zm15.8 11.6c-.4.9-1.3 1.9-2.8 1.9h-19.2c-1.5 0-2.5-1-2.8-1.9-.4-.9-.4-2.3.7-3.3l.8-.8c.3.1.4.3.8.6.5.6 1.2 1.3 2.6 1.3 1.4 0 2.1-.8 2.6-1.3s.7-.7 1.1-.7c.5 0 .7.2 1.1.7.5.6 1.2 1.3 2.6 1.3 1.4 0 2.1-.8 2.6-1.3s.7-.7 1.1-.7c.5 0 .7.2 1.1.7.5.6 1.2 1.3 2.6 1.3 1.4 0 2.1-.8 2.6-1.3.3-.3.5-.5.8-.6l.8.8c1.3 1 1.3 2.4.9 3.3zM481 151h2.1v2H481v-2zm0 4h2.1v2H481v-2zm-4.1-5h2v2h-2v-2zm0 4h2v2h-2v-2zm-4.1-3h2.1v2h-2.1v-2zm0 4h2.1v2h-2.1v-2z"/><path class="st0" d="M484.7 149v17.7c0 1.8 1.5 3.3 3.4 3.3s3.4-1.5 3.4-3.3v-2.2h-2.2v2.2c0 .6-.5 1.1-1.1 1.1-.6 0-1.1-.5-1.1-1.1V149h-2.4z"/><path class="st0" d="M489.2 160.1h2.2v2.2h-2.2v-2.2zM618.6 191h30.3c.3 0 .6-.2.8-.4.1-.2.2-.4.2-.7v-14.4c0-2.3-1.3-4.3-3.4-5.2l-6.3-2.8c-.4-.2-.7-.6-.7-1.1v-1.7c2.2-1.7 3.5-4.4 3.5-7.2v-2.4c.7-.4 1.2-1.2 1.2-2v-.2c0-5.1-4.1-9.2-9.2-9.2h-2.3c-5.1 0-9.2 4.1-9.2 9.2v2.2c0 .7.3 1.4.9 1.8.1.1.2.1.3.2v.5c0 2.8 1.3 5.5 3.5 7.2v1.7c0 .5-.3.9-.7 1.1l-6.3 2.8c-2.1.9-3.4 3-3.4 5.2V190c-.3.5.2 1 .8 1zm19.1-23l-4 4-4-4c.3-.5.5-1.1.5-1.7v-.4c1.1.5 2.3.7 3.6.7 1.2 0 2.4-.2 3.6-.7v.4c-.2.6 0 1.2.3 1.7zm10 7.5v13.7h-3.6v-9.4c0-.6.3-1.2.7-1.7l2.9-2.9v.3zm-2.1-3.3c.4.2.8.5 1.1.8l-3.5 3.5c-.9.9-1.3 2-1.3 3.2v9.4h-7.1V174l4.6-4.6 6.2 2.8zm-20.1-17.3v-2.2c0-3.9 3.2-7.1 7.1-7.1h2.3c3.9 0 7.1 3.2 7.1 7.1v.3c-6.5 1.3-9.8-1.1-10.9-2.2-.4-.4-2.2-1.8-2.6-1.3-.4.4.6 2.5 1.1 2.9h.1c-.5.5-1.2 1.1-1.5 1.4-.6.5-1.3.8-1.8 1-.5.1-.7.1-.9.1zm1.1 2.4v-.5c.7-.3 1.3-1.1 2-1.6l.2-.2c.3-.3.6-.7.9-1.2.2-.3.3-.6.4-.9 3.3 2.8 7.8 2.8 10.6 2.5v2c0 3.9-3.2 7.1-7.1 7.1-3.8-.1-7-3.3-7-7.2zm-4.8 14.9l6.2-2.8 4.6 4.6v15.1h-7.1v-9.4c0-1.2-.5-2.4-1.3-3.2l-3.5-3.5c.3-.3.6-.6 1.1-.8zm-2.1 3.3v-.4l2.9 2.9c.5.4.7 1.1.7 1.7v9.4h-3.6v-13.6zm47.5-32.6c-1.8-.7-3.7.2-4.4 1.9-.6 1.7.3 3.6 2.1 4.3 1.7.6 3.6-.3 4.2-2 .7-1.6-.2-3.6-1.9-4.2z"/><path class="st0" d="M682.4 141.7c-.2-.7-.6-1.4-1.4-2-.6-.6-1.3-1.1-2.5-1.5-1-.4-2-.6-3-.7v-.4c-.1-1.6-.5-3-1-4.2-.3-.7-.6-1.1-1.1-1.6-.4-.4-.9-.8-1.4-1-.7-.2-1.2-.3-1.8-.2-1 .1-2.2.5-3.2 1.2-.9.6-1.7 1.3-2.4 2-.9-.6-1.9-1.2-2.8-1.5-1-.4-1.9-.5-2.7-.4-.9 0-1.7.2-2.4.6-.9.7-1.3 1.5-1.6 2.2-.3.9-.5 1.9-.5 3.3.1 1.4.4 3 1 4.4-.1 0-.2.1-.2.1-.1.1-.2.1-.3.2-.2.1-.3.2-.5.3-1 .7-1.9 1.3-2.6 2.2-.9.8-1.5 1.7-1.8 2.8-.3.9-.4 1.8-.1 2.6.2.9.7 1.6 1.5 2.2.5.5 1.3.9 2.4 1.3 1 .4 2 .6 3.1.8v.3c.1 1.6.4 3 1 4.2.4.6.7 1.1 1.1 1.5.5.5.9.8 1.6 1 .5.2 1.1.3 1.7.2 1.3 0 2.4-.6 3.4-1.2.7-.5 1.5-1.2 2.2-2 .9.6 1.8 1 2.8 1.4 1 .4 1.8.5 2.6.5s1.6-.2 2.5-.7c.7-.4 1.3-1.2 1.7-2.2.3-.9.5-2 .4-3.3-.1-1.3-.4-2.7-.9-4.4.2-.1.3-.2.5-.3 1.2-.8 2.2-1.6 3.1-2.4.8-.9 1.4-1.9 1.7-2.8.1-.7.1-1.6-.1-2.5zm-8.6 5.9c.3.6.5 1 .6 1.5-.3.1-.7.3-1.1.5l-.4.2.1-.2c.1-.3.3-.6.4-.9l.3-.9.1-.2zm-3.1-8.4h2.8c0 .4 0 .8-.1 1.2v.2c0 .6-.1 1.3-.2 1.9l-.4-.6-.2-.3c-.7-.9-1.3-1.7-1.9-2.4zm1.8 6.1c-.2.8-.5 1.7-.9 2.8-.3.9-.7 1.8-1.1 2.7l-.2.1c-.8.3-1.7.6-2.6.8-1.4.4-2.8.6-4.2.8-.9-1.1-1.8-2.1-2.6-3.3-.5-.7-.9-1.4-1.3-2.1l-.2-.4c.2-.9.6-1.9.9-2.8.4-1 .7-1.9 1.1-2.8.9-.3 1.8-.6 2.7-.8 1.4-.4 2.8-.6 4.2-.8 1 1.1 1.9 2.2 2.5 3.3.7.8 1.3 1.7 1.7 2.5zm-6.6-10.9c1.1-1 2.1-1.7 3-2 .4-.2.8-.3 1.3-.4.4 0 .7 0 1 .1.3.1.6.3.9.6.4.5.8 1.1 1.1 2.2.2.7.4 1.6.4 2.4h-1.5c-.5 0-1 0-1.5.1-.4 0-.8 0-1.2.1l-1.8-1.8-.3-.3c-.5-.4-.9-.6-1.4-1zm-1.2 1.5c.2.1.3.3.5.4.2.2.4.4.7.6.3.2.5.5.8.7l.2.2-.4.1c-.9.2-1.8.3-2.7.6-.2.1-.4.1-.6.2-.1 0-.3.1-.4.1.6-1.1 1.2-2.1 1.9-2.9zm-8.1-1c.2-.6.5-1 .9-1.2h.1c.3-.2.8-.4 1.3-.4.6.1 1.2.2 2 .5s1.5.7 2.2 1.1c-.3.3-.6.8-.9 1.3-.8 1-1.5 2.2-2.1 3.6-1.1.4-2.2.9-3.2 1.3v-.1c-.3-1.4-.6-2.5-.6-3.5v-.1c-.1-.9 0-1.7.3-2.5zm0 17.6c-1-.1-1.7-.3-2.4-.6-.8-.3-1.4-.7-1.8-1l-.1-.1c-.5-.3-.7-.7-.9-1.1 0-.5-.1-1 .1-1.5.2-.6.7-1.3 1.4-2.1.9-.9 1.9-1.7 3-2.3.4 1.1.9 2.2 1.5 3.2-.5 2.2-.8 4-.8 5.5zm1.6-8.2c-.2-.5-.5-1-.6-1.5.4-.2.9-.4 1.4-.6h.1c-.2.3-.3.7-.5 1.1-.2.2-.3.6-.4 1zm.3 7.3v-.3c0-.6.2-1.3.3-2 .2.3.4.6.6.8.6.9 1.2 1.7 1.8 2.5h-2.8c.1-.2.1-.6.1-1zm4.8 8c-.4.2-.8.3-1.2.3h-.1c-.8.2-1.4 0-1.8-.7l-.1-.1c-.5-.4-.9-1-1.2-2.1-.2-.7-.3-1.6-.4-2.5.5.1.9.1 1.5.1 1 0 1.9-.1 2.8-.2.7.8 1.4 1.4 2.1 2 .1.1.3.2.4.3.3.2.5.5.8.7-.9 1-2 1.8-2.8 2.2zm4.1-3.6l-1.2-.9-.7-.7-.2-.2c.7-.1 1.4-.3 2.1-.4.3-.1.6-.1.9-.2.3-.1.7-.2 1.1-.3-.7 1-1.4 1.9-2 2.7zm8.1 1c-.3.7-.5 1-1 1.4-.3.2-.7.3-1.2.3h-.1c-.7 0-1.3-.1-2.1-.4-.7-.3-1.4-.6-2.2-1.1l.9-1.2c.8-1 1.5-2.2 2.2-3.7 1.1-.4 2.2-.8 3.1-1.4l.1.1c.3 1.1.5 2.3.7 3.2v.3c0 1.2-.3 2.1-.4 2.5zm5-13.2c-.2.6-.7 1.3-1.4 2.1-.8.8-1.7 1.5-2.9 2.3-.5-1-1-2.1-1.5-3.1.5-2.1.8-4 .8-5.6.2 0 .4.1.6.1.7.1 1.4.3 1.8.5.8.3 1.5.6 1.9.9.5.4.7.8.9 1.3 0 .3 0 .9-.2 1.5zm.2 24.4c0-.4-.4-.8-.8-.8h-17.8c-2.5 0-4.6 2.1-4.6 4.6v20c0 2.5 2.1 4.6 4.6 4.6h17.8c.4 0 .8-.4.8-.8v-20c0-.4-.4-.8-.8-.8h-17.8c-1.7 0-3-1.3-3-3s1.3-3 3-3h17.8c.5 0 .8-.4.8-.8zm-18.6 8.4h17V195h-17c-1.7 0-3-1.3-3-3v-16.5c.8.7 1.9 1.1 3 1.1z"/><path class="st0" d="M662.5 170.9c-.5 0-.9.4-.9.9s.4 1 .9 1h15.1c.5 0 .9-.4.9-1s-.4-.9-.9-.9h-15.1z"/><circle class="st0" cx="674.9" cy="180.6" r="2.2"/><path class="st0" d="M224 175.6v21.3h31.7v-1.5c0-7.7 6.1-14.3 13.5-14.3s13.5 6.6 13.5 14.3v1.5h13.6v-30.8h-8v-17.8h-1.6l-8.8-18.2-7.5 18.2h-.6c.1-.4.1-.8.1-1.2 0-3.9-3.1-7.1-6.9-7.1-3.8 0-6.9 3.2-6.9 7.1 0 2.5 1.3 4.7 3.2 6H255v13h-11.1l8-8.3-9.7-10-17.8 18.4 9.1 9.4H224zm39-33.3c2.6 0 4.6 2.1 4.6 4.8 0 2.6-2.1 4.8-4.6 4.8s-4.6-2.1-4.6-4.8c-.1-2.7 2-4.8 4.6-4.8zm5.8 10.7h-2.1c.9-.6 1.6-1.3 2.1-2.2v2.2zm0 13.1h-11.6v-10.8h11.6v10.8zm15.4-17.8h-11.5l5.3-12.7 6.2 12.7zm1.8 17.8h-15v-15.5h15v15.5zm-42.6 2.3H294v26.2h-8.9c-.7-8.6-7.4-16.2-16-16.2s-15.3 7.5-16 16.2h-9.8l.1-26.2zm-9.3 4.6l-6.6-6.8 14.7-15.2 6.6 6.8-14.7 15.2zm7.1-4.1v6.7h-6.5l6.5-6.7zm0 25.7h-15v-16.7h15v16.7z"/><path class="st9" d="M764.8 92.2h-40.5c-.7 0-1.3.6-1.3 1.3v1.9c0 .7.6 1.3 1.3 1.3s1.3-.6 1.3-1.3v-.6h39.2c.7 0 1.3-.6 1.3-1.3s-.5-1.3-1.3-1.3zm-32.9-31.5h3.8c.7 0 1.3-.5 1.3-1.1v-4.7c0-.6-.6-1.1-1.3-1.1h-3.8c-.7 0-1.3.5-1.3 1.1v4.7c0 .6.5 1.1 1.3 1.1zm1.3-4.7h1.2v2.4h-1.2V56zm-9.5-4.1c0-.7-.6-1.3-1.3-1.3H711c-.7 0-1.3.6-1.3 1.3v18.9c0 .7.6 1.3 1.3 1.3.7 0 1.3-.6 1.3-1.3V53.2h10.1c.7 0 1.3-.6 1.3-1.3zm-8.9 21.4c-5 0-5.1 12.1-5.1 12.7 0 2.3 1.6 4.3 3.8 4.9v4.5c0 .7.6 1.3 1.3 1.3s1.3-.6 1.3-1.3v-4.5c2.2-.6 3.8-2.6 3.8-4.9 0-.5 0-12.7-5.1-12.7zm0 15.2c-1.4 0-2.5-1.1-2.5-2.5 0-5.2 1.4-10 2.5-10s2.5 4.9 2.5 10c0 1.3-1.1 2.5-2.5 2.5z"/><path class="st9" d="M720.5 67.6h-3.8c-.7 0-1.3.6-1.3 1.3v1.9c0 .7.6 1.3 1.3 1.3.7 0 1.3-.6 1.3-1.3v-.6h1.2v4.4c0 .7.6 1.3 1.3 1.3.7 0 1.3-.6 1.3-1.3v-5.7c0-.7-.6-1.3-1.3-1.3zm41-10c0-.7-.6-1.3-1.3-1.3h-3.8c-.7 0-1.3.6-1.3 1.3v5.7c0 .7.6 1.3 1.3 1.3h3.8c.7 0 1.3-.6 1.3-1.3v-5.7zM759 62h-1.2v-3.1h1.2V62zm-38.5-5.7h-3.8c-.7 0-1.3.6-1.3 1.3v5.7c0 .7.6 1.3 1.3 1.3h3.8c.7 0 1.3-.6 1.3-1.3v-5.7c0-.7-.6-1.3-1.3-1.3zm-1.3 5.7H718v-3.1h1.2V62zm27.2-7.1c0-.6-.6-1.1-1.3-1.1h-3.8c-.7 0-1.3.5-1.3 1.1v4.7c0 .6.6 1.1 1.3 1.1h3.8c.7 0 1.3-.5 1.3-1.1v-4.7zm-2.6 3.6h-1.2V56h1.2v2.5zm2.6-12.4c0-.6-.6-1.1-1.3-1.1h-3.8c-.7 0-1.3.5-1.3 1.1v4.7c0 .6.6 1.1 1.3 1.1h3.8c.7 0 1.3-.5 1.3-1.1v-4.7zm-2.6 3.5h-1.2v-2.4h1.2v2.4zm1.3 13h-3.8c-.7 0-1.3.5-1.3 1.1v4.7c0 .6.6 1.1 1.3 1.1h3.8c.7 0 1.3-.5 1.3-1.1v-4.7c0-.6-.6-1.1-1.3-1.1zm-1.3 4.7h-1.2v-2.4h1.2v2.4zm-8.2-22.4h-3.8c-.7 0-1.3.5-1.3 1.1v4.7c0 .3.1.6.4.8.2.2.6.3.9.3h3.8c.7 0 1.3-.5 1.3-1.1V46c0-.6-.5-1.1-1.3-1.1zm-1.2 4.7h-1.2v-2.4h1.2v2.4zm-2.5 20h3.8c.7 0 1.3-.5 1.3-1.1v-4.7c0-.6-.6-1.1-1.3-1.1h-3.8c-.7 0-1.3.5-1.3 1.1v4.7c0 .6.5 1.1 1.3 1.1zm1.3-4.7h1.2v2.4h-1.2v-2.4zm13.5 19.5v-.6c0-.3-.2-.5-.5-.5h-13.1l3.3-3.7c.1-.1 0-.3-.2-.6l-.4-.5c-.2-.2-.4-.3-.5-.2l-4.4 5c-.2.1-.2.3-.2.5v.6c0 .2.1.4.2.5l4.4 5c.1.1.3 0 .5-.2l.4-.5c.2-.2.3-.5.2-.6l-3.3-3.7h13.1c.3.1.5-.1.5-.5zm17.9 5.5s.1 1.3 1.3 1.3 1.3-1.2 1.3-1.2v-9.5h-2.6v9.4z"/><path class="st9" d="M754.6 53.2h10.1v20.3h2.6V51.9c0-.7-.6-1.3-1.3-1.3h-11.4c-.7 0-1.3.6-1.3 1.3s.6 1.3 1.3 1.3z"/><path class="st9" d="M782.2 76.1l-5.3-5.4c-.1-.1-.4 0-.6.2l-.5.5c-.2.2-.3.5-.2.6l3.9 4h-39.1c-.3 0-.6.3-.6.6v.7c0 .3.3.6.6.6h39.1l-3.9 4c-.1.1 0 .4.2.6l.5.5c.2.2.5.3.6.2l5.3-5.4c.2-.1.3-.3.3-.5v-.7c-.1-.2-.2-.4-.3-.5z"/><path class="st9" d="M726.2 91.1c.7 0 1.3-.6 1.3-1.3V41.9h22v31.6h2.6V40.6c0-.7-.6-1.3-1.3-1.3h-12.1v-2.7h7.2c.3 0 .6-.3.6-.7V31c0-.4-.3-.7-.6-.7h-7s-.4-.3-.9-.3-.9.4-.9.9v8.4h-10.8c-.7 0-1.3.6-1.3 1.3v49.2c-.1.7.5 1.3 1.2 1.3zm12.5-59h6.5V35h-6.5v-2.9zm13.4 57.7v-9.3h-2.6v9.3c0 .7.6 1.3 1.3 1.3s1.3-.6 1.3-1.3zm8.1-22.2h-3.8c-.7 0-1.3.6-1.3 1.3v4.5h6.4v-4.5c0-.7-.5-1.3-1.3-1.3zm-1.2 5.7h-1.2v-3.1h1.2v3.1zm1.2 14c.7 0 1.3-.6 1.3-1.3v-5.5h-6.4V86c0 .7.6 1.3 1.3 1.3h3.8zm-2.4-5.7h1.2v3.1h-1.2v-3.1z"/><path class="st0" d="M764.8 192.1h-40.5c-.7 0-1.3.6-1.3 1.3v1.9c0 .7.6 1.3 1.3 1.3s1.3-.6 1.3-1.3v-.6h39.2c.7 0 1.3-.6 1.3-1.3 0-.7-.5-1.3-1.3-1.3zm-32.9-31.5h3.8c.7 0 1.3-.5 1.3-1.1v-4.7c0-.6-.6-1.1-1.3-1.1h-3.8c-.7 0-1.3.5-1.3 1.1v4.7c0 .6.5 1.1 1.3 1.1zm1.3-4.7h1.2v2.4h-1.2v-2.4zm-9.5-4.1c0-.7-.6-1.3-1.3-1.3H711c-.7 0-1.3.6-1.3 1.3v18.9c0 .7.6 1.3 1.3 1.3.7 0 1.3-.6 1.3-1.3v-17.6h10.1c.7 0 1.3-.6 1.3-1.3zm-8.9 21.4c-5 0-5.1 12.1-5.1 12.7 0 2.3 1.6 4.3 3.8 4.9v4.5c0 .7.6 1.3 1.3 1.3s1.3-.6 1.3-1.3v-4.5c2.2-.6 3.8-2.6 3.8-4.9 0-.6 0-12.7-5.1-12.7zm0 15.1c-1.4 0-2.5-1.1-2.5-2.5 0-5.2 1.4-10 2.5-10s2.5 4.9 2.5 10c0 1.4-1.1 2.5-2.5 2.5z"/><path class="st0" d="M720.5 167.5h-3.8c-.7 0-1.3.6-1.3 1.3v1.9c0 .7.6 1.3 1.3 1.3.7 0 1.3-.6 1.3-1.3v-.6h1.2v4.4c0 .7.6 1.3 1.3 1.3.7 0 1.3-.6 1.3-1.3v-5.7c0-.7-.6-1.3-1.3-1.3zm41-10c0-.7-.6-1.3-1.3-1.3h-3.8c-.7 0-1.3.6-1.3 1.3v5.7c0 .7.6 1.3 1.3 1.3h3.8c.7 0 1.3-.6 1.3-1.3v-5.7zm-2.5 4.3h-1.2v-3.1h1.2v3.1zm-38.5-5.6h-3.8c-.7 0-1.3.6-1.3 1.3v5.7c0 .7.6 1.3 1.3 1.3h3.8c.7 0 1.3-.6 1.3-1.3v-5.7c0-.8-.6-1.3-1.3-1.3zm-1.3 5.6H718v-3.1h1.2v3.1zm27.2-7c0-.6-.6-1.1-1.3-1.1h-3.8c-.7 0-1.3.5-1.3 1.1v4.7c0 .6.6 1.1 1.3 1.1h3.8c.7 0 1.3-.5 1.3-1.1v-4.7zm-2.6 3.5h-1.2v-2.4h1.2v2.4zm2.6-12.4c0-.6-.6-1.1-1.3-1.1h-3.8c-.7 0-1.3.5-1.3 1.1v4.7c0 .6.6 1.1 1.3 1.1h3.8c.7 0 1.3-.5 1.3-1.1v-4.7zm-2.6 3.6h-1.2v-2.4h1.2v2.4zm1.3 12.9h-3.8c-.7 0-1.3.5-1.3 1.1v4.7c0 .6.6 1.1 1.3 1.1h3.8c.7 0 1.3-.5 1.3-1.1v-4.7c0-.5-.6-1.1-1.3-1.1zm-1.3 4.8h-1.2v-2.4h1.2v2.4zm-8.2-22.4h-3.8c-.7 0-1.3.5-1.3 1.1v4.7c0 .3.1.6.4.8.2.2.6.3.9.3h3.8c.7 0 1.3-.5 1.3-1.1v-4.7c0-.6-.5-1.1-1.3-1.1zm-1.2 4.7h-1.2v-2.4h1.2v2.4zm-2.5 19.9h3.8c.7 0 1.3-.5 1.3-1.1v-4.7c0-.6-.6-1.1-1.3-1.1h-3.8c-.7 0-1.3.5-1.3 1.1v4.7c0 .6.5 1.1 1.3 1.1zm1.3-4.7h1.2v2.4h-1.2v-2.4zm13.5 19.6v-.6c0-.3-.2-.5-.5-.5h-13.1l3.3-3.7c.1-.1 0-.3-.2-.6l-.4-.5c-.2-.2-.4-.3-.5-.2l-4.4 5c-.2.1-.2.3-.2.5v.6c0 .2.1.4.2.5l4.4 5c.1.1.3 0 .5-.2l.4-.5c.2-.2.3-.5.2-.6l-3.3-3.7h13.1c.3.1.5-.2.5-.5zm17.9 5.4s.1 1.3 1.3 1.3 1.3-1.2 1.3-1.2v-9.5h-2.6v9.4z"/><path class="st0" d="M754.6 153.1h10.1v20.3h2.6v-21.6c0-.7-.6-1.3-1.3-1.3h-11.4c-.7 0-1.3.6-1.3 1.3 0 .7.6 1.3 1.3 1.3z"/><path class="st0" d="M782.2 176l-5.3-5.4c-.1-.1-.4 0-.6.2l-.5.5c-.2.2-.3.5-.2.6l3.9 4h-39.1c-.3 0-.6.3-.6.6v.7c0 .3.3.6.6.6h39.1l-3.9 4c-.1.1 0 .4.2.6l.5.5c.2.2.5.3.6.2l5.3-5.4c.2-.1.3-.3.3-.5v-.7c-.1-.2-.2-.4-.3-.5z"/><path class="st0" d="M726.2 190.9c.7 0 1.3-.6 1.3-1.3v-47.9h22v31.6h2.6v-32.9c0-.7-.6-1.3-1.3-1.3h-12.1v-2.7h7.2c.3 0 .6-.3.6-.7v-4.8c0-.4-.3-.7-.6-.7h-7s-.4-.3-.9-.3-.9.4-.9.9v8.4h-10.8c-.7 0-1.3.6-1.3 1.3v49.2c-.1.6.5 1.2 1.2 1.2zm12.5-58.9h6.5v2.9h-6.5V132zm13.4 57.6v-9.3h-2.6v9.3c0 .7.6 1.3 1.3 1.3s1.3-.6 1.3-1.3zm8.1-22.1h-3.8c-.7 0-1.3.6-1.3 1.3v4.5h6.4v-4.5c0-.7-.5-1.3-1.3-1.3zm-1.2 5.7h-1.2v-3.1h1.2v3.1zm1.2 13.9c.7 0 1.3-.6 1.3-1.3v-5.5h-6.4v5.5c0 .7.6 1.3 1.3 1.3h3.8zm-2.4-5.6h1.2v3.1h-1.2v-3.1zm81.6 2.2v-16.6c-.7.4-1.4.8-2.2 1.1v12H828c-.1-.8-.5-1.5-1-2.1-.7-.7-1.6-1.1-2.6-1.1s-1.9.4-2.6 1.1c-.6.6-.9 1.3-1 2.1h-9.2v-31.3h12.2v-2.2h-12.2v-1.1c0-1.4 1.2-2.6 2.6-2.6h9.6v-2.2h-9.6c-2.7 0-4.8 2.2-4.8 4.8v38.1c0 2.7 2.2 4.8 4.8 4.8h20.5c2.6 0 4.7-2.1 4.7-4.8zm-27.9 0v-1.3h9.5c.2.4.4.7.7 1 .7.7 1.6 1.1 2.6 1.1s1.9-.4 2.6-1.1c.3-.3.5-.6.7-1h9.5v1.3c0 1.4-1.2 2.6-2.6 2.6H814c-1.3 0-2.5-1.2-2.5-2.6zm22.1-36.8h29c.6 0 1.1-.5 1.2-1.1s-.5-1.1-1.1-1.2h-29.1c-.6 0-1.1.5-1.1 1.2 0 .6.5 1.1 1.1 1.1zm7.3-6h21.8c.6 0 1.1-.6 1.1-1.2s-.5-1-1.1-1.1h-21.8c-.6 0-1.1.5-1.1 1.1 0 .6.5 1.2 1.1 1.2zm-7.3 0h2.4c.6 0 1.1-.6 1.1-1.2s-.5-1-1.1-1.1h-2.4c-.6 0-1.1.5-1.1 1.1 0 .6.5 1.2 1.1 1.2zm29 9.8h-8.5c-.6 0-1.1.5-1.1 1.1 0 .6.5 1.1 1.1 1.1h8.5c.6 0 1.1-.5 1.1-1.1.1-.6-.4-1.1-1.1-1.1zm-29 2.2h15.7c.6 0 1.1-.5 1.1-1.1 0-.6-.5-1.1-1.1-1.1h-15.7c-.6 0-1.1.5-1.1 1.1 0 .6.5 1.1 1.1 1.1z"/><path class="st0" d="M831.2 160.2h2.7c-.6 1.5-1.4 2.9-2.4 4.1-.6.8-.7 1.9-.1 2.7.5.8 1.5 1.2 2.5 1 6.5-1.5 10.2-5 12.3-7.9H865c3.3 0 6-2.7 6-6v-16.9c0-3.3-2.7-6-6-6h-33.8c-3.3 0-6 2.7-6 6v16.9c.1 3.4 2.7 6.1 6 6.1zm-3.7-22.9c0-2 1.7-3.7 3.7-3.7H865c2 0 3.7 1.7 3.7 3.7v16.9c0 2-1.7 3.7-3.7 3.7h-19.5c-.4 0-.7.2-.9.5-1.8 2.6-5.2 6-11.3 7.4v-.2c1.5-1.9 2.6-4 3.3-6.3.2-.6-.2-1.2-.8-1.4h-4.6c-2 0-3.7-1.7-3.7-3.7v-16.9zm38.3 44.1v-2.6h9.3v-.5h-22.6V175h1.7v-1.8h-1.7v-7.7h-2.9l-5.2 8v1.6h5.8v3.3h-7.6v.5h14l-1.1 8.7c.8-.1 1.6-.2 2.4-.2 3.5 0 5 1.3 5 3.3 0 2.1-1.9 3.2-3.8 3.2-1.6 0-3.1-.5-3.9-.9l-.7 2.5c.9.5 2.6 1 4.7 1 4.3 0 7.1-2.7 7.1-6.1 0-2.1-1-3.6-2.3-4.5-1.2-.8-2.7-1.1-4.3-1.1-.4 0-.9 0-1.3.1l.5-3.5h6.9zm-19.1-8.2l2.4-3.6c.4-.7.7-1.4 1.1-2.2h.1c-.1.8-.1 1.5-.1 2.2v3.5l-3.5.1zm-31 18.1h33.6v1.1h-33.6v-1.1z"/><path class="st8" d="M923.1 52.4h15.7c.6 0 1.1-.5 1.1-1.1 0-.6-.5-1.1-1.1-1.1h-15.7c-.6 0-1.1.5-1.1 1.1 0 .6.5 1.1 1.1 1.1zm0-6.1h29c.6 0 1.1-.5 1.2-1.1 0-.6-.5-1.1-1.1-1.2h-29.1c-.6 0-1.1.5-1.1 1.2 0 .6.5 1.1 1.1 1.1zm0-6h2.4c.6 0 1.1-.6 1.1-1.2s-.5-1-1.1-1.1h-2.4c-.6 0-1.1.5-1.1 1.2 0 .6.5 1.1 1.1 1.1zm29 9.8h-8.5c-.6 0-1.1.5-1.1 1.1 0 .6.5 1.1 1.1 1.1h8.5c.6 0 1.1-.5 1.1-1.1.1-.6-.4-1.1-1.1-1.1zm-21.7-9.8h21.8c.6 0 1.1-.6 1.1-1.2s-.5-1-1.1-1.1h-21.8c-.6 0-1.1.5-1.1 1.2 0 .6.5 1.1 1.1 1.1z"/><path class="st8" d="M920.7 59.6h2.7c-.6 1.5-1.4 2.9-2.4 4.1-.6.8-.7 1.9-.1 2.7.5.8 1.5 1.2 2.5 1 6.5-1.5 10.2-5 12.3-7.9h18.9c3.3 0 6-2.7 6-6V36.7c0-3.3-2.7-6-6-6h-33.8c-3.3 0-6 2.7-6 6v16.9c0 3.4 2.6 6 5.9 6zM917 36.7c0-2 1.7-3.7 3.7-3.7h33.8c2 0 3.7 1.7 3.7 3.7v16.9c0 2-1.7 3.7-3.7 3.7H935c-.4 0-.7.2-.9.5-1.8 2.6-5.2 6-11.3 7.4V65c1.5-1.9 2.6-4 3.3-6.3.2-.6-.2-1.2-.8-1.4h-4.6c-2 0-3.7-1.7-3.7-3.7V36.7zm38.3 44.2v-2.6h9.3v-.5H942v-3.3h1.7v-1.8H942V65h-2.9l-5.2 8v1.6h5.8v3.3h-7.6v.5h14L945 87c.7-.1 1.4-.2 2.4-.2 3.5 0 5 1.3 5 3.3 0 2.1-1.9 3.2-3.8 3.2-1.6 0-3.1-.5-3.9-.9l-.7 2.5c.9.5 2.6 1 4.7 1 4.3 0 7.1-2.7 7.1-6.1 0-2.1-1-3.6-2.3-4.5-1.2-.8-2.7-1.1-4.3-1.1-.4 0-.9 0-1.3.1l.5-3.5 6.9.1zm-15.6-11.8v3.5h-3.5l2.3-3.5c.4-.7.7-1.4 1.1-2.2h.1v2.2z"/><path class="st8" d="M900.2 82.3v-2.8h29.4v-1.9h-29.4V45.1c0-1.5 1.3-2.8 2.8-2.8h9.3v-1.9H903c-2.6 0-4.7 2.1-4.7 4.7v37.3c0 2.6 2.1 4.7 4.7 4.7h18v6.8h-6.5c-.5 0-.9.4-.9.9s.4.9.9.9h26.1c.5 0 .9-.4.9-.9s-.4-.9-.9-.9H934V87h8.5l.2-1.9H903c-1.6 0-2.8-1.2-2.8-2.8zm22.7 4.7h9.3v6.8h-9.3V87zm33.8-11.8V61.8c-.6.2-1.2.3-1.9.3v13.1h1.9zm-9.6-1.3c-.5 0-.9.4-.9.9 0 .1 0 .2.1.3h6.7c0-.1.1-.2.1-.3V62.1h-1.9v11.8h-4.1z"/><path class="st8" d="M912.2 46v-1.9H903c-.5 0-.9.4-.9.9v29.8c0 .5.4.9.9.9h26.6v-1.9h-25.7V46h8.3z"/><path class="st0" d="M923.1 152.9h15.7c.6 0 1.1-.5 1.1-1.1 0-.6-.5-1.1-1.1-1.1h-15.7c-.6 0-1.1.5-1.1 1.1 0 .6.5 1.1 1.1 1.1zm0-6.1h29c.6 0 1.1-.6 1.1-1.2s-.5-1-1.1-1.1h-29c-.6 0-1.1.5-1.1 1.2 0 .6.5 1.1 1.1 1.1zm0-6h2.4c.6 0 1.1-.6 1.1-1.2s-.5-1-1.1-1.1h-2.4c-.6 0-1.1.5-1.1 1.2 0 .6.5 1.1 1.1 1.1zm29 9.8h-8.5c-.6 0-1.1.5-1.1 1.1 0 .6.5 1.1 1.1 1.1h8.5c.6 0 1.1-.5 1.1-1.1.1-.6-.4-1.1-1.1-1.1zm-21.7-9.8h21.8c.6 0 1.1-.6 1.1-1.2s-.5-1-1.1-1.1h-21.8c-.6 0-1.1.5-1.1 1.2 0 .6.5 1.1 1.1 1.1z"/><path class="st0" d="M920.7 160.1h2.7c-.6 1.5-1.4 2.9-2.4 4.1-.6.8-.7 1.9-.1 2.7.5.8 1.5 1.2 2.5 1 6.5-1.5 10.2-5 12.3-7.9h18.9c3.3 0 6-2.7 6-6v-16.9c0-3.3-2.7-6-6-6h-33.8c-3.3 0-6 2.7-6 6V154c0 3.5 2.6 6.1 5.9 6.1zm-3.7-22.9c0-2 1.7-3.7 3.7-3.7h33.8c2 0 3.7 1.7 3.7 3.7v16.9c0 2-1.7 3.7-3.7 3.7H935c-.4 0-.7.2-.9.5-1.8 2.6-5.2 6-11.3 7.4v-.2c1.5-1.9 2.6-4 3.3-6.3.2-.6-.2-1.2-.8-1.4h-4.6c-2 0-3.7-1.7-3.7-3.7v-16.9zm38.3 44.2v-2.6h9.3v-.5H942V175h1.7v-1.8H942v-7.7h-2.9l-5.2 8v1.6h5.8v3.3h-7.6v.5h14l-1.1 8.7c.7-.1 1.4-.2 2.4-.2 3.5 0 5 1.3 5 3.3 0 2.1-1.9 3.2-3.8 3.2-1.6 0-3.1-.5-3.9-.9l-.7 2.5c.9.5 2.6 1 4.7 1 4.3 0 7.1-2.7 7.1-6.1 0-2.1-1-3.6-2.3-4.5-1.2-.8-2.7-1.1-4.3-1.1-.4 0-.9 0-1.3.1l.5-3.5h6.9zm-15.6-11.8v3.5h-3.5l2.3-3.5c.4-.7.7-1.4 1.1-2.2h.1v2.2z"/><path class="st0" d="M900.2 182.8V180h29.4v-1.9h-29.4v-32.6c0-1.5 1.3-2.8 2.8-2.8h9.3v-1.9H903c-2.6 0-4.7 2.1-4.7 4.7v37.3c0 2.6 2.1 4.7 4.7 4.7h18v6.8h-6.5c-.5 0-.9.4-.9.9s.4.9.9.9h26.1c.5 0 .9-.4.9-.9s-.4-.9-.9-.9H934v-6.8h8.5l.2-1.9H903c-1.6 0-2.8-1.2-2.8-2.8zm22.7 4.7h9.3v6.8h-9.3v-6.8zm33.8-11.8v-13.4c-.6.2-1.2.3-1.9.3v13.1h1.9zm-9.6-1.3c-.5 0-.9.4-.9.9 0 .1 0 .2.1.3h6.7c0-.1.1-.2.1-.3v-12.7h-1.9v11.8h-4.1z"/><path class="st0" d="M912.2 146.5v-1.9H903c-.5 0-.9.4-.9.9v29.8c0 .5.4.9.9.9h26.6v-1.9h-25.7v-27.9l8.3.1z"/><path class="st9" d="M1000.8 30.8c-.7 0-1.3.6-1.3 1.3v7.1c0 .7.6 1.3 1.3 1.3.7 0 1.3-.6 1.3-1.3V32c0-.7-.6-1.2-1.3-1.2zm4.1 0c-.7 0-1.3.6-1.3 1.3v7.1c0 .7.6 1.3 1.3 1.3.7 0 1.3-.6 1.3-1.3V32c-.1-.7-.6-1.2-1.3-1.2zm4 0c-.7 0-1.3.6-1.3 1.3v7.1c0 .7.6 1.3 1.3 1.3.7 0 1.3-.6 1.3-1.3V32c0-.7-.6-1.2-1.3-1.2zm31.5 0c-.7 0-1.3.6-1.3 1.3v7.1c0 .7.6 1.3 1.3 1.3s1.3-.6 1.3-1.3V32c-.1-.7-.6-1.2-1.3-1.2zm4.1 0c-.7 0-1.3.6-1.3 1.3v7.1c0 .7.6 1.3 1.3 1.3.7 0 1.3-.6 1.3-1.3V32c-.1-.7-.7-1.2-1.3-1.2zm4 0c-.7 0-1.3.6-1.3 1.3v7.1c0 .7.6 1.3 1.3 1.3.7 0 1.3-.6 1.3-1.3V32c0-.7-.6-1.2-1.3-1.2zM1015.1 78v-2.6h4.2v-.5h-17.5v-3.3h1.7v-1.8h-1.7V62h-2.9l-5.2 8v1.6h5.8v3.3h-7.6v.5h14l-1.1 8.7c.7-.1 1.4-.2 2.4-.2 3.5 0 5 1.3 5 3.3 0 2.1-1.9 3.2-3.8 3.2-1.6 0-3.1-.5-3.9-.9l-.7 2.5c.9.5 2.6 1 4.7 1 4.3 0 7.1-2.7 7.1-6.1 0-2.1-1-3.6-2.3-4.5-1.2-.8-2.7-1.1-4.3-1.1-.4 0-.9 0-1.3.1l.5-3.5h6.9zm-15.6-11.7v3.5H996l2.3-3.5c.4-.7.7-1.4 1.1-2.2h.1v2.2zm32.5-21.1h-14.7c-.6 0-1.1-.5-1.1-1.1s.5-1.1 1.1-1.1h14.7c.6 0 1.1.5 1.1 1.1s-.5 1.1-1.1 1.1zm-19.8-8.9v2.3h25v-2.2h-25z"/><path class="st9" d="M1001.8 88.9h-1.8c-1.6 0-2.9-1.3-2.9-2.9v-7.8h-2.3V86c0 2.8 2.3 5.1 5.1 5.1h1.5l.4-2.2zm5.9-24c-.3 0-.5-.1-.7-.3l-1.8-1.8c-.3-.4-.5-.9-.1-1.2.4-.3.7-.2 1.2 0s1.4 1 1.4 1l2.1-2.5c.6-.5 1-.7 1.5-.5.5.2.6.9.2 1.3l-3.2 3.7c-.1.2-.3.3-.6.3zm16.5 0c-.3 0-.5-.1-.7-.3l-1.8-1.8c-.3-.4-.5-.9-.1-1.2.4-.3.7-.2 1.2 0s1.4 1 1.4 1l2.1-2.5c.6-.5 1-.7 1.5-.5.5.2.6.9.2 1.3l-3.2 3.7c-.1.2-.3.3-.6.3z"/><path class="st9" d="M1012 55.4h-7.2c-1.7 0-3.1 1.4-3.1 3.1v1.2h2.3v-1.2c0-.5.4-.9.9-.9h7.2c.5 0 .9.4.9.9v7.2c0 .5-.4.9-.9.9h-6.7v2.3h6.7c1.7 0 3.1-1.4 3.1-3.1v-7.2c-.1-1.8-1.5-3.2-3.2-3.2zm28.4 41.1c-9.7 0-17.7-7.9-17.7-17.7 0-9.7 7.9-17.7 17.7-17.7s17.7 7.9 17.7 17.7c0 9.8-8 17.7-17.7 17.7zm0-33c-8.5 0-15.4 6.9-15.4 15.4s6.9 15.4 15.4 15.4 15.4-6.9 15.4-15.4-6.9-15.4-15.4-15.4z"/><path class="st9" d="M1040.4 90.7c-6.5 0-11.9-5.3-11.9-11.9s5.3-11.9 11.9-11.9c6.5 0 11.9 5.3 11.9 11.9s-5.4 11.9-11.9 11.9zm0-21.9c-5.6 0-10.1 4.5-10.1 10.1s4.5 10.1 10.1 10.1 10.1-4.5 10.1-10.1-4.6-10.1-10.1-10.1z"/><circle class="st9" cx="1040.4" cy="78.9" r="1.9"/><path class="st9" d="M1040.4 79.9c-.6 0-1-.5-1-1v-7.6c0-.6.5-1 1-1 .6 0 1 .5 1 1v7.6c0 .5-.4 1-1 1z"/><path class="st9" d="M1036.6 83.6c-.3 0-.5-.1-.7-.3-.4-.4-.4-1 0-1.4l3.7-3.7c.4-.4 1-.4 1.4 0 .4.4.4 1 0 1.4l-3.7 3.7c-.1.2-.4.3-.7.3zm-13.7-14.8c.5-.8 1-1.5 1.5-2.3h-3.2c-.5 0-.9-.4-.9-.9v-7.2c0-.5.4-.9.9-.9h7.2c.5 0 .9.4.9.9V62c.7-.5 1.5-.9 2.3-1.3v-2.2c0-1.7-1.4-3.1-3.1-3.1h-7.2c-1.7 0-3.1 1.4-3.1 3.1v7.2c0 1.7 1.4 3.1 3.1 3.1h1.6zm13.8-9.8v-.5c0-.5.4-.9.9-.9h7.2c.5 0 .9.4.9.9v.9c.8.2 1.5.5 2.3.8v-1.7c0-1.7-1.4-3.1-3.1-3.1h-7.2c-1.7 0-3.1 1.4-3.1 3.1v1c.6-.2 1.4-.4 2.1-.5zm-16.1 23.3c-.2-.1-.3-.3-.3-.6V80c0-.3-.1-.7-.1-1s0-.7.1-1v-2.8c0-.3.3-.6.6-.7.2-.7.4-1.4.7-2.1h-.5c-1.7 0-3.1 1.3-3.1 2.8v6.5c0 1.6 1.4 2.8 3.1 2.8-.1-.7-.3-1.4-.5-2.2z"/><path class="st9" d="M1052.3 62.7c.8.6 1.6 1.3 2.3 2V52.2c1.8-.5 3.1-2.1 3.1-4v-7.9c0-2.3-1.9-4.1-4.1-4.1h-1.7v2.2h1.7c1 0 1.9.8 1.9 1.9v7.9c0 1-.8 1.9-1.9 1.9h-57.7c-1 0-1.9-.8-1.9-1.9v-7.9c0-1 .8-1.9 1.9-1.9h1.7v-2.3h-1.7c-2.3 0-4.1 1.9-4.1 4.1v7.9c0 1.9 1.4 3.6 3.2 4v9.7l2.3-2.5v-7.1h55.2v10.5zm-29.2 26.2h-5.4l-.8 2.3h7.8c-.7-.8-1.2-1.5-1.6-2.3z"/><path class="st0" d="M1094.6 131.3c-.7 0-1.3.6-1.3 1.3v7.1c0 .7.6 1.3 1.3 1.3s1.3-.6 1.3-1.3v-7.1c0-.8-.6-1.3-1.3-1.3zm4.1 0c-.7 0-1.3.6-1.3 1.3v7.1c0 .7.6 1.3 1.3 1.3s1.3-.6 1.3-1.3v-7.1c-.1-.8-.6-1.3-1.3-1.3zm4 0c-.7 0-1.3.6-1.3 1.3v7.1c0 .7.6 1.3 1.3 1.3s1.3-.6 1.3-1.3v-7.1c0-.8-.6-1.3-1.3-1.3zm31.5 0c-.7 0-1.3.6-1.3 1.3v7.1c0 .7.6 1.3 1.3 1.3s1.3-.6 1.3-1.3v-7.1c-.1-.8-.6-1.3-1.3-1.3zm4 0c-.7 0-1.3.6-1.3 1.3v7.1c0 .7.6 1.3 1.3 1.3.7 0 1.3-.6 1.3-1.3v-7.1c0-.8-.6-1.3-1.3-1.3zm4.1 0c-.7 0-1.3.6-1.3 1.3v7.1c0 .7.6 1.3 1.3 1.3.7 0 1.3-.6 1.3-1.3v-7.1c0-.8-.6-1.3-1.3-1.3zm-33.4 47.2v-2.6h4.2v-.5h-17.5v-3.3h1.7v-1.8h-1.7v-7.7h-2.9l-5.2 8v1.6h5.8v3.3h-7.6v.5h14l-1.1 8.7c.7-.1 1.4-.2 2.4-.2 3.5 0 5 1.3 5 3.3 0 2.1-1.9 3.2-3.8 3.2-1.6 0-3.1-.5-3.9-.9l-.7 2.5c.9.5 2.6 1 4.7 1 4.3 0 7.1-2.7 7.1-6.1 0-2.1-1-3.6-2.3-4.5-1.2-.8-2.7-1.1-4.3-1.1-.4 0-.9 0-1.3.1l.5-3.5h6.9zm-15.7-11.7v3.5h-3.5l2.3-3.5c.4-.7.7-1.4 1.1-2.2h.1c.1.7 0 1.4 0 2.2zm32.6-21.1h-14.7c-.6 0-1.1-.5-1.1-1.1s.5-1.1 1.1-1.1h14.7c.6 0 1.1.5 1.1 1.1s-.5 1.1-1.1 1.1zm-19.8-9v2.3h25v-2.2h-25z"/><path class="st0" d="M1095.6 189.3h-1.8c-1.6 0-2.9-1.3-2.9-2.9v-7.8h-2.3v7.8c0 2.8 2.3 5.1 5.1 5.1h1.5l.4-2.2zm5.9-23.9c-.3 0-.5-.1-.7-.3l-1.8-1.8c-.3-.4-.5-.9-.1-1.2.4-.3.7-.2 1.2 0s1.4 1 1.4 1l2.1-2.5c.6-.5 1-.7 1.5-.5.5.2.6.9.2 1.3l-3.2 3.7c-.1.2-.3.3-.6.3zm16.5 0c-.3 0-.5-.1-.7-.3l-1.8-1.8c-.3-.4-.5-.9-.1-1.2.4-.3.7-.2 1.2 0s1.4 1 1.4 1l2.1-2.5c.6-.5 1-.7 1.5-.5.5.2.6.9.2 1.3l-3.2 3.7c-.1.2-.3.3-.6.3z"/><path class="st0" d="M1105.7 155.9h-7.2c-1.7 0-3.1 1.4-3.1 3.1v1.2h2.3V159c0-.5.4-.9.9-.9h7.2c.5 0 .9.4.9.9v7.2c0 .5-.4.9-.9.9h-6.7v2.3h6.7c1.7 0 3.1-1.4 3.1-3.1V159c0-1.7-1.4-3.1-3.2-3.1zm28.5 41.1c-9.7 0-17.7-7.9-17.7-17.7 0-9.7 7.9-17.7 17.7-17.7s17.7 7.9 17.7 17.7c-.1 9.8-8 17.7-17.7 17.7zm0-33c-8.5 0-15.4 6.9-15.4 15.4s6.9 15.4 15.4 15.4 15.4-6.9 15.4-15.4-6.9-15.4-15.4-15.4z"/><path class="st0" d="M1134.2 191.2c-6.5 0-11.9-5.3-11.9-11.9s5.3-11.9 11.9-11.9 11.9 5.3 11.9 11.9-5.4 11.9-11.9 11.9zm0-21.9c-5.6 0-10.1 4.5-10.1 10.1s4.5 10.1 10.1 10.1 10.1-4.5 10.1-10.1-4.6-10.1-10.1-10.1z"/><circle class="st0" cx="1134.2" cy="179.4" r="1.9"/><path class="st0" d="M1134.2 180.4c-.6 0-1-.5-1-1v-7.6c0-.6.5-1 1-1 .6 0 1 .5 1 1v7.6c0 .5-.5 1-1 1z"/><path class="st0" d="M1130.4 184.1c-.3 0-.5-.1-.7-.3-.4-.4-.4-1 0-1.4l3.7-3.7c.4-.4 1-.4 1.4 0 .4.4.4 1 0 1.4l-3.7 3.7c-.1.2-.4.3-.7.3zm-13.7-14.8c.5-.8 1-1.5 1.5-2.3h-3.2c-.5 0-.9-.4-.9-.9V159c0-.5.4-.9.9-.9h7.2c.5 0 .9.4.9.9v3.5c.7-.5 1.5-.9 2.3-1.3V159c0-1.7-1.4-3.1-3.1-3.1h-7.2c-1.7 0-3.1 1.4-3.1 3.1v7.2c0 1.7 1.4 3.1 3.1 3.1h1.6zm13.8-9.8v-.5c0-.5.4-.9.9-.9h7.2c.5 0 .9.4.9.9v.9c.8.2 1.5.5 2.3.8V159c0-1.7-1.4-3.1-3.1-3.1h-7.2c-1.7 0-3.1 1.4-3.1 3.1v1c.6-.2 1.3-.4 2.1-.5zm-16.1 23.3c-.2-.1-.3-.3-.3-.6v-1.7c0-.3-.1-.7-.1-1s0-.7.1-1v-2.8c0-.3.3-.6.6-.7.2-.7.4-1.4.7-2.1h-.5c-1.7 0-3.1 1.3-3.1 2.8v6.5c0 1.6 1.4 2.8 3.1 2.8-.1-.7-.3-1.4-.5-2.2z"/><path class="st0" d="M1146.1 163.2c.8.6 1.6 1.3 2.3 2v-12.5c1.8-.5 3.1-2.1 3.1-4v-7.9c0-2.3-1.9-4.1-4.1-4.1h-1.7v2.2h1.7c1 0 1.9.8 1.9 1.9v7.9c0 1-.8 1.9-1.9 1.9h-57.7c-1 0-1.9-.8-1.9-1.9v-7.9c0-1 .8-1.9 1.9-1.9h1.7v-2.3h-1.7c-2.3 0-4.1 1.9-4.1 4.1v7.9c0 1.9 1.4 3.6 3.2 4v9.7l2.3-2.5v-7.1h55.2v10.5zm-29.3 26.1h-5.4l-.8 2.3h7.8c-.6-.7-1.1-1.5-1.6-2.3z"/><path class="st7" d="M1094.6 30.8c-.7 0-1.3.6-1.3 1.3v7.1c0 .7.6 1.3 1.3 1.3s1.3-.6 1.3-1.3V32c0-.7-.6-1.2-1.3-1.2zm4.1 0c-.7 0-1.3.6-1.3 1.3v7.1c0 .7.6 1.3 1.3 1.3s1.3-.6 1.3-1.3V32c-.1-.7-.6-1.2-1.3-1.2zm4 0c-.7 0-1.3.6-1.3 1.3v7.1c0 .7.6 1.3 1.3 1.3s1.3-.6 1.3-1.3V32c0-.7-.6-1.2-1.3-1.2zm31.5 0c-.7 0-1.3.6-1.3 1.3v7.1c0 .7.6 1.3 1.3 1.3s1.3-.6 1.3-1.3V32c-.1-.7-.6-1.2-1.3-1.2zm4 0c-.7 0-1.3.6-1.3 1.3v7.1c0 .7.6 1.3 1.3 1.3.7 0 1.3-.6 1.3-1.3V32c0-.7-.6-1.2-1.3-1.2zm4.1 0c-.7 0-1.3.6-1.3 1.3v7.1c0 .7.6 1.3 1.3 1.3.7 0 1.3-.6 1.3-1.3V32c0-.7-.6-1.2-1.3-1.2zM1108.9 78v-2.6h4.2v-.5h-17.5v-3.3h1.7v-1.8h-1.7V62h-2.9l-5.2 8v1.6h5.8v3.3h-7.6v.5h14l-1.1 8.7c.7-.1 1.4-.2 2.4-.2 3.5 0 5 1.3 5 3.3 0 2.1-1.9 3.2-3.8 3.2-1.6 0-3.1-.5-3.9-.9l-.7 2.5c.9.5 2.6 1 4.7 1 4.3 0 7.1-2.7 7.1-6.1 0-2.1-1-3.6-2.3-4.5-1.2-.8-2.7-1.1-4.3-1.1-.4 0-.9 0-1.3.1l.5-3.5h6.9zm-15.7-11.7v3.5h-3.5l2.3-3.5c.4-.7.7-1.4 1.1-2.2h.1c.1.7 0 1.5 0 2.2zm32.6-21.1h-14.7c-.6 0-1.1-.5-1.1-1.1s.5-1.1 1.1-1.1h14.7c.6 0 1.1.5 1.1 1.1s-.5 1.1-1.1 1.1zm-19.8-8.9v2.3h25v-2.2h-25z"/><path class="st7" d="M1095.6 88.9h-1.8c-1.6 0-2.9-1.3-2.9-2.9v-7.8h-2.3V86c0 2.8 2.3 5.1 5.1 5.1h1.5l.4-2.2zm5.9-24c-.3 0-.5-.1-.7-.3l-1.8-1.8c-.3-.4-.5-.9-.1-1.2.4-.3.7-.2 1.2 0s1.4 1 1.4 1l2.1-2.5c.6-.5 1-.7 1.5-.5.5.2.6.9.2 1.3l-3.2 3.7c-.1.2-.3.3-.6.3zm16.5 0c-.3 0-.5-.1-.7-.3l-1.8-1.8c-.3-.4-.5-.9-.1-1.2.4-.3.7-.2 1.2 0s1.4 1 1.4 1l2.1-2.5c.6-.5 1-.7 1.5-.5.5.2.6.9.2 1.3l-3.2 3.7c-.1.2-.3.3-.6.3z"/><path class="st7" d="M1105.7 55.4h-7.2c-1.7 0-3.1 1.4-3.1 3.1v1.2h2.3v-1.2c0-.5.4-.9.9-.9h7.2c.5 0 .9.4.9.9v7.2c0 .5-.4.9-.9.9h-6.7v2.3h6.7c1.7 0 3.1-1.4 3.1-3.1v-7.2c0-1.8-1.4-3.2-3.2-3.2zm28.5 41.1c-9.7 0-17.7-7.9-17.7-17.7 0-9.7 7.9-17.7 17.7-17.7s17.7 7.9 17.7 17.7c-.1 9.8-8 17.7-17.7 17.7zm0-33c-8.5 0-15.4 6.9-15.4 15.4s6.9 15.4 15.4 15.4 15.4-6.9 15.4-15.4-6.9-15.4-15.4-15.4z"/><path class="st7" d="M1134.2 90.7c-6.5 0-11.9-5.3-11.9-11.9s5.3-11.9 11.9-11.9 11.9 5.3 11.9 11.9-5.4 11.9-11.9 11.9zm0-21.9c-5.6 0-10.1 4.5-10.1 10.1s4.5 10.1 10.1 10.1 10.1-4.5 10.1-10.1-4.6-10.1-10.1-10.1z"/><circle class="st7" cx="1134.2" cy="78.9" r="1.9"/><path class="st7" d="M1134.2 79.9c-.6 0-1-.5-1-1v-7.6c0-.6.5-1 1-1 .6 0 1 .5 1 1v7.6c0 .5-.5 1-1 1z"/><path class="st7" d="M1130.4 83.6c-.3 0-.5-.1-.7-.3-.4-.4-.4-1 0-1.4l3.7-3.7c.4-.4 1-.4 1.4 0 .4.4.4 1 0 1.4l-3.7 3.7c-.1.2-.4.3-.7.3zm-13.7-14.8c.5-.8 1-1.5 1.5-2.3h-3.2c-.5 0-.9-.4-.9-.9v-7.2c0-.5.4-.9.9-.9h7.2c.5 0 .9.4.9.9V62c.7-.5 1.5-.9 2.3-1.3v-2.2c0-1.7-1.4-3.1-3.1-3.1h-7.2c-1.7 0-3.1 1.4-3.1 3.1v7.2c0 1.7 1.4 3.1 3.1 3.1h1.6zm13.8-9.8v-.5c0-.5.4-.9.9-.9h7.2c.5 0 .9.4.9.9v.9c.8.2 1.5.5 2.3.8v-1.7c0-1.7-1.4-3.1-3.1-3.1h-7.2c-1.7 0-3.1 1.4-3.1 3.1v1c.6-.2 1.3-.4 2.1-.5zm-16.1 23.3c-.2-.1-.3-.3-.3-.6V80c0-.3-.1-.7-.1-1s0-.7.1-1v-2.8c0-.3.3-.6.6-.7.2-.7.4-1.4.7-2.1h-.5c-1.7 0-3.1 1.3-3.1 2.8v6.5c0 1.6 1.4 2.8 3.1 2.8-.1-.7-.3-1.4-.5-2.2z"/><path class="st7" d="M1146.1 62.7c.8.6 1.6 1.3 2.3 2V52.2c1.8-.5 3.1-2.1 3.1-4v-7.9c0-2.3-1.9-4.1-4.1-4.1h-1.7v2.2h1.7c1 0 1.9.8 1.9 1.9v7.9c0 1-.8 1.9-1.9 1.9h-57.7c-1 0-1.9-.8-1.9-1.9v-7.9c0-1 .8-1.9 1.9-1.9h1.7v-2.3h-1.7c-2.3 0-4.1 1.9-4.1 4.1v7.9c0 1.9 1.4 3.6 3.2 4v9.7l2.3-2.5v-7.1h55.2v10.5zm-29.3 26.2h-5.4l-.8 2.3h7.8c-.6-.8-1.1-1.5-1.6-2.3z"/></svg>